<svg width="69" height="100" viewBox="0 0 69 100" fill="none" xmlns="http://www.w3.org/2000/svg">
<path d="M9.54077 4.26967C10.0476 4.42806 10.6178 4.0796 10.7762 3.57276C10.8712 3.09759 10.5228 2.68578 10.0793 2.52739C9.06558 2.24229 8.59042 3.69947 9.41405 4.20631C9.60411 4.33302 9.44572 4.58645 9.25566 4.49141C8.71713 4.14296 8.52707 3.44605 8.78049 2.84417C9.03391 2.27397 9.66749 2.05222 10.2694 2.27397C10.8396 2.46403 11.2514 3.06591 11.0613 3.69947C10.8396 4.3647 10.111 4.77651 9.44572 4.55477C9.25565 4.49141 9.31902 4.20631 9.54077 4.26967Z" fill="white"/>
<path d="M8.74881 7.37409C8.93888 8.2294 10.4277 7.81758 10.206 6.96228C9.98424 6.17034 8.52706 6.58215 8.78048 7.37409C8.87551 7.56416 9.16061 7.46913 9.09726 7.27906C8.93887 6.86725 9.76249 6.6455 9.8892 7.05732C10.0159 7.50081 9.16062 7.72255 9.06559 7.27906C9.00223 7.08899 8.68545 7.18403 8.74881 7.37409Z" fill="white"/>
<path d="M5.39098 4.83987C5.54937 5.5051 6.72144 5.18832 6.56305 4.49141C6.37298 3.82618 5.16923 4.17463 5.42265 4.83987C5.48601 5.02994 5.80279 4.9349 5.70776 4.74483C5.61273 4.49141 6.18291 4.33302 6.24627 4.58645C6.30962 4.87155 5.73945 5.02994 5.67609 4.74483C5.64441 4.55477 5.32763 4.6498 5.39098 4.83987Z" fill="white"/>
<path d="M11.3147 10.3518C12.9831 12.696 14.662 15.0401 16.3515 17.3843C17.0484 18.3663 17.7453 19.38 18.4739 20.362C19.0757 21.1856 19.7093 22.0092 20.5646 22.5794C21.2932 23.0863 22.3702 23.4664 23.2255 22.9913C24.4926 22.2943 23.3206 20.7105 22.8454 19.8868C20.3745 15.737 17.6503 11.714 14.7042 7.88094C14.5775 7.72255 14.8626 7.56416 14.9893 7.72255C16.8055 10.1089 18.5372 12.5481 20.1845 15.0401C20.9025 16.1383 21.61 17.247 22.3069 18.3663C22.6448 18.9154 22.9721 19.475 23.2889 20.0452C23.6057 20.5521 23.9541 21.0906 24.0809 21.6608C24.2709 22.5794 23.7007 23.2764 22.8454 23.4664C21.9584 23.6565 21.0398 23.308 20.3112 22.7695C19.4876 22.1993 18.8223 21.3757 18.2521 20.5837C17.4602 19.475 16.6682 18.398 15.8763 17.2892C14.2713 15.0296 12.6557 12.7699 11.0296 10.5102C10.9345 10.3518 11.188 10.1934 11.3147 10.3518Z" fill="white"/>
<path d="M11.1563 10.5736C10.8078 10.7003 10.396 10.8587 10.0159 10.6369C9.79413 10.4785 9.63574 10.1934 9.73077 9.90832C9.79413 9.74993 9.95251 9.62322 10.0792 9.52818C10.3326 9.33812 10.5755 9.13749 10.8078 8.92631C11.2513 8.58841 11.6842 8.23995 12.1066 7.88094C12.5501 7.53248 12.9619 7.15235 13.4054 6.83557C13.7222 6.58215 14.0706 6.3604 14.4824 6.42376C14.9576 6.48712 15.4011 7.21571 14.9576 7.59584C14.7992 7.72255 14.5775 7.50081 14.7359 7.37409C15.021 7.12067 14.6091 6.74054 14.3557 6.74054C14.0389 6.70886 13.7539 6.96228 13.5321 7.12067C13.0886 7.47969 12.6557 7.8387 12.2333 8.19772C11.7687 8.57785 11.3041 8.94742 10.8395 9.30644C10.6494 9.46483 10.3326 9.6549 10.2059 9.84496C10.1003 9.8872 10.0687 9.97167 10.1109 10.0984C10.0687 10.3307 10.1743 10.4468 10.4277 10.4468C10.6178 10.4468 10.8395 10.3518 10.9979 10.2885C11.188 10.2251 11.3463 10.4785 11.1563 10.5736Z" fill="white"/>
<path fill-rule="evenodd" clip-rule="evenodd" d="M21.8951 19.8235C21.9902 20.0135 22.1169 20.2036 22.2119 20.4254C22.3069 20.6154 22.3703 20.8372 22.3386 21.0589C22.3386 21.2807 22.1802 21.5024 21.9585 21.5658C21.7367 21.6608 21.4833 21.6291 21.2616 21.5974C20.3746 21.344 19.7093 20.6471 19.1075 19.9819C18.5373 19.285 17.9988 18.588 17.4602 17.8911C16.9534 17.1625 16.4465 16.4339 15.9397 15.7054L15.7496 15.4203C15.6863 15.3886 15.5596 15.1668 15.5596 14.9768C15.5279 14.8184 15.5913 14.5966 15.6863 14.4699C15.7285 14.4277 15.7602 14.3854 15.7813 14.3432C15.813 14.3115 15.8763 14.2799 15.8763 14.2799L16.0347 14.1848L17.1118 13.4246C17.2385 13.3612 17.4286 13.2662 17.6186 13.2978C17.777 13.3295 17.9671 13.4246 18.0621 13.5513C18.1255 13.6146 18.1255 13.6463 18.1888 13.7097L18.2839 13.8364L18.4422 14.1215C18.6957 14.4805 18.9491 14.8501 19.2025 15.2302C19.6777 15.9905 20.1212 16.7507 20.533 17.5427C20.9765 18.3241 21.4305 19.0843 21.8951 19.8235ZM21.8951 19.8235C20.9448 18.3346 20.0261 16.8141 18.9174 15.4203C18.664 15.0612 18.3895 14.7128 18.0938 14.3749L17.7137 13.868C17.6186 13.8047 17.5236 13.8047 17.4286 13.868L16.3832 14.6917L16.2565 14.7867C16.2248 14.7867 16.2248 14.8184 16.1931 14.8184C16.172 14.8606 16.1615 14.8923 16.1615 14.9134C16.1298 14.9451 16.3199 15.1668 16.4466 15.3569C17.4919 16.8141 18.3789 18.3346 19.3609 19.7918C19.6143 20.1403 19.8994 20.4887 20.2162 20.7738C20.533 21.0906 20.8814 21.344 21.2932 21.5024C21.4833 21.5658 21.7367 21.5974 21.9268 21.5341C22.1485 21.4707 22.307 21.2807 22.307 21.0589C22.3386 20.8372 22.2753 20.6154 22.1802 20.4254C22.1169 20.2036 21.9902 20.0135 21.8951 19.8235Z" fill="white"/>
<path fill-rule="evenodd" clip-rule="evenodd" d="M17.8087 16.4339C17.7137 16.4023 17.6503 16.3389 17.587 16.2756C17.5236 16.1805 17.4919 16.0538 17.5553 15.9271C17.587 15.7687 17.7454 15.6737 17.8721 15.6737C17.9988 15.642 18.1572 15.6737 18.2522 15.8004C18.3472 15.9271 18.3789 16.0538 18.3472 16.1488C18.3156 16.2439 18.2522 16.3389 18.1888 16.3706C18.1255 16.4023 18.0621 16.4339 17.9987 16.4339C18.0621 16.4339 18.0938 16.3706 18.0938 16.3072C18.0938 16.2756 18.0621 16.2122 18.0305 16.1805C18.0093 16.1805 17.9882 16.1805 17.9671 16.1805C17.946 16.1805 17.9249 16.1911 17.9037 16.2122C17.8404 16.2439 17.8404 16.3072 17.8404 16.3706C17.872 16.4023 17.9354 16.4339 17.9987 16.4339C17.9354 16.4339 17.872 16.4339 17.8087 16.4339ZM17.9671 16.1805C17.9882 16.1805 17.9987 16.1911 17.9987 16.2122C18.0304 16.2439 17.9671 16.3072 17.9671 16.2756C17.9671 16.3072 17.9354 16.2756 17.9354 16.2439C17.9354 16.2228 17.946 16.2016 17.9671 16.1805Z" fill="white"/>
<path fill-rule="evenodd" clip-rule="evenodd" d="M19.4876 17.0992C19.551 17.0992 19.646 17.1625 19.7093 17.2576C19.741 17.3526 19.7727 17.4793 19.741 17.606C19.6776 17.7327 19.5193 17.8278 19.3926 17.8595C19.2975 17.8911 19.1075 17.8278 19.0124 17.7327C18.9174 17.606 18.9174 17.4793 18.9491 17.3843C18.9807 17.2892 19.0441 17.1942 19.1074 17.1625C19.1708 17.0992 19.2342 17.0992 19.2658 17.0992C19.2342 17.0992 19.1708 17.1625 19.1708 17.1942C19.1708 17.2576 19.2025 17.3209 19.2658 17.3209C19.287 17.342 19.3081 17.342 19.3292 17.3209C19.3503 17.3209 19.3714 17.3104 19.3926 17.2892C19.4242 17.2576 19.4559 17.2259 19.4242 17.1625C19.3925 17.0992 19.3609 17.0675 19.2975 17.0992C19.3292 17.0675 19.3926 17.0675 19.4876 17.0992ZM19.3292 17.3209C19.3081 17.3209 19.287 17.3104 19.2658 17.2892C19.2658 17.2576 19.2975 17.2259 19.2975 17.2259C19.2975 17.2259 19.3609 17.2576 19.3609 17.2892C19.3609 17.3104 19.3503 17.3209 19.3292 17.3209Z" fill="white"/>
<path fill-rule="evenodd" clip-rule="evenodd" d="M19.6776 19.5067C19.6354 19.4645 19.6037 19.4011 19.5826 19.3166C19.5826 19.2533 19.5826 19.1582 19.646 19.0949C19.7093 18.9682 19.836 18.8415 19.9627 18.8098C20.0894 18.7464 20.2478 18.7147 20.4379 18.7781C20.5435 18.7992 20.6385 18.852 20.723 18.9365C20.7652 18.9787 20.7969 19.0315 20.818 19.0949C20.818 19.116 20.8286 19.1477 20.8497 19.1899C20.8497 19.211 20.8497 19.2322 20.8497 19.2533V19.2216C20.8497 19.2638 20.8603 19.3061 20.8814 19.3483C20.8814 19.3905 20.8708 19.4433 20.8497 19.5067C20.8286 19.6123 20.7758 19.7073 20.6913 19.7918C20.5646 19.9185 20.4062 19.9819 20.2478 19.9819C20.1211 20.0135 19.9627 19.9819 19.836 19.8868C19.6776 19.8235 19.6143 19.6334 19.6776 19.5067ZM19.6776 19.5067L19.7093 19.475C19.6882 19.4961 19.6776 19.5067 19.6776 19.5067ZM20.8497 19.2216C20.8497 19.2216 20.8497 19.211 20.8497 19.1899V19.2216ZM19.6776 19.5067C19.7727 19.6017 19.836 19.6017 19.9311 19.6017C19.9944 19.5701 20.0578 19.5384 20.1211 19.5067C20.1845 19.475 20.2478 19.4117 20.2478 19.38C20.2478 19.3483 20.2161 19.38 20.2161 19.38L20.2478 19.3483L20.2161 19.3166C20.2161 19.3166 20.2478 19.3483 20.2478 19.3166C20.2162 19.3166 20.1528 19.285 20.0895 19.285C20.0261 19.285 19.931 19.285 19.8677 19.3166C19.8043 19.3166 19.741 19.38 19.7093 19.5067C19.6882 19.5067 19.6776 19.5067 19.6776 19.5067Z" fill="white"/>
<path d="M21.9268 100C20.0261 98.0149 18.1782 95.9875 16.3831 93.9179C14.5458 91.8905 12.7719 89.7997 10.9663 87.709C9.19229 85.6183 7.43946 83.5275 5.70774 81.4368C3.9549 79.325 2.22317 77.192 0.512573 75.0379C2.41324 77.023 4.26111 79.0398 6.05619 81.0883C7.8935 83.1474 9.66745 85.2381 11.4731 87.2972C13.247 89.3879 14.9893 91.4787 16.7316 93.6011C18.4844 95.7129 20.2162 97.8459 21.9268 100Z" fill="white"/>
<path d="M0.670959 75.0379C2.55051 75.059 4.43007 75.1118 6.30963 75.1963C8.21029 75.2913 10.0793 75.4497 11.9799 75.6081C13.8489 75.7665 15.7179 75.9565 17.5869 76.21C19.4665 76.4423 21.3354 76.7379 23.1939 77.0969C21.3143 76.9913 19.4348 76.8646 17.5552 76.7168L11.9166 76.2416C10.0476 76.0516 8.14691 75.8932 6.27792 75.7031C4.39837 75.5131 2.52939 75.2913 0.670959 75.0379Z" fill="white"/>
<path d="M22.1168 99.9366C21.9901 98.036 21.9584 96.1036 22.0218 94.203C22.0535 92.3023 22.1485 90.3699 22.2752 88.4693C22.4019 86.5686 22.5603 84.6679 22.7187 82.7673C22.9088 80.8666 23.1199 78.9659 23.3522 77.0653C23.3522 78.9659 23.31 80.8772 23.2255 82.7989C23.1305 84.6996 23.0355 86.6003 22.9088 88.501L22.497 94.2346C22.3703 96.1353 22.2118 98.036 22.1168 99.9366Z" fill="white"/>
<path d="M18.5689 88.1208C17.9037 87.5189 17.3335 86.8537 16.7316 86.1885C16.1614 85.5232 15.6229 84.8263 15.0843 84.1294C14.5775 83.4325 14.0707 82.7039 13.5955 81.9753C13.1203 81.2467 12.6768 80.4865 12.265 79.6945C12.8986 80.3281 13.4371 80.9933 14.0073 81.6902C14.5458 82.3555 15.0843 83.0524 15.5912 83.7493C16.1297 84.4779 16.6366 85.1748 17.1434 85.9034C17.6186 86.6003 18.1254 87.3606 18.5689 88.1208Z" fill="white"/>
<path d="M12.3601 79.6312C12.9303 79.5361 13.5005 79.5045 14.039 79.4728C14.6092 79.4728 15.1689 79.4833 15.7179 79.5045C16.267 79.5467 16.8161 79.6101 17.3652 79.6945C17.9354 79.7579 18.4739 79.8529 19.0124 80.043C18.4422 80.138 17.9037 80.1697 17.3335 80.1697C16.7844 80.1908 16.2354 80.1803 15.6863 80.138C15.1161 80.1169 14.5564 80.0641 14.0073 79.9796C13.4688 79.8846 12.8986 79.7896 12.3601 79.6312Z" fill="white"/>
<path d="M18.5689 88.1208C18.5372 87.4239 18.5372 86.7587 18.5689 86.0618C18.6006 85.3965 18.664 84.6996 18.7273 84.0344C18.7907 83.3692 18.8857 82.7039 18.9808 82.0387C19.0758 81.3418 19.1708 80.6765 19.3292 80.0113C19.4242 80.7082 19.4559 81.3735 19.4559 82.0704C19.4559 82.7356 19.4242 83.4325 19.3609 84.0977C19.2975 84.7947 19.2025 85.4599 19.0758 86.1251C18.9491 86.7904 18.7907 87.4556 18.5689 88.1208Z" fill="white"/>
<path d="M18.7906 96.2304C18.7906 96.072 18.854 95.9136 18.8857 95.7869C18.9491 95.6601 19.023 95.5546 19.1074 95.4701C19.213 95.3645 19.3186 95.28 19.4242 95.2167C19.5509 95.185 19.7093 95.1216 19.8994 95.1216C19.8994 95.3117 19.836 95.4384 19.8044 95.5651C19.741 95.6918 19.6671 95.808 19.5826 95.9136C19.477 95.998 19.3714 96.072 19.2658 96.1353C19.1391 96.1987 18.9807 96.2304 18.7906 96.2304Z" fill="white"/>
<path d="M16.3198 93.316C16.3831 93.0942 16.5098 92.9042 16.6049 92.7458C16.7316 92.5557 16.8688 92.3973 17.0167 92.2706C17.1645 92.1228 17.3334 91.9961 17.5235 91.8905C17.7136 91.7954 17.9036 91.7004 18.1254 91.6687C18.062 91.8905 17.967 92.0806 17.8403 92.2706C17.7347 92.4396 17.608 92.598 17.4602 92.7458C17.3123 92.8725 17.1434 92.9886 16.9533 93.0942C16.7633 93.1893 16.5732 93.2843 16.3198 93.316Z" fill="white"/>
<path d="M14.134 90.8134C14.0707 90.6551 14.134 90.4967 14.1657 90.37C14.2291 90.2432 14.3136 90.1271 14.4192 90.0215C14.5247 89.937 14.6514 89.8737 14.7993 89.8314C14.926 89.7998 15.0844 89.7998 15.2428 89.8631C15.2111 90.0215 15.1161 90.1482 15.0527 90.2432C14.9894 90.3488 14.9154 90.4333 14.8309 90.4967C14.7465 90.5811 14.6515 90.6445 14.5459 90.6867C14.4192 90.7501 14.2924 90.8134 14.134 90.8134Z" fill="white"/>
<path d="M11.7899 87.8357C11.8215 87.614 11.9166 87.4556 12.0116 87.3289C12.1172 87.1811 12.2334 87.0543 12.3601 86.9487C12.4868 86.8432 12.6346 86.7587 12.8036 86.6953C12.962 86.632 13.1203 86.5686 13.3421 86.5686C13.3104 86.7904 13.2154 86.9487 13.1203 87.0755C13.0148 87.2233 12.8986 87.35 12.7719 87.4556C12.6451 87.5612 12.4974 87.6457 12.3284 87.709C12.17 87.7724 12.0116 87.8357 11.7899 87.8357Z" fill="white"/>
<path d="M9.66742 85.6499C9.66742 85.4916 9.73075 85.3649 9.76243 85.2698C9.82579 85.1642 9.89972 85.0797 9.9842 85.0164C10.0687 84.953 10.1637 84.9108 10.2693 84.8897C10.396 84.858 10.5227 84.858 10.6811 84.8897C10.6811 85.0481 10.6178 85.1748 10.5861 85.2698C10.5227 85.3754 10.4488 85.4599 10.3643 85.5232C10.2798 85.5866 10.1848 85.6394 10.0792 85.6816C9.9525 85.6816 9.82581 85.7133 9.66742 85.6499Z" fill="white"/>
<path d="M7.79846 83.2108C7.79846 83.0207 7.83016 82.894 7.89351 82.7673C7.95687 82.6406 8.03077 82.5244 8.11524 82.4188C8.19971 82.3343 8.30531 82.2604 8.43202 82.1971C8.55873 82.1337 8.71713 82.0704 8.87552 82.0704C8.90719 82.2604 8.84381 82.4188 8.81214 82.5455C8.74878 82.6722 8.67488 82.7778 8.59041 82.8623C8.48481 82.9679 8.36867 83.0524 8.24196 83.1157C8.11525 83.1474 7.98853 83.2108 7.79846 83.2108Z" fill="white"/>
<path d="M5.45429 80.7716C5.42261 80.6132 5.45428 80.4865 5.48596 80.3914C5.52819 80.2858 5.58099 80.2014 5.64434 80.138C5.7077 80.0747 5.79219 80.0324 5.89778 80.0113C5.99282 79.9796 6.11951 79.9796 6.2779 80.0113C6.2779 80.1697 6.27792 80.2647 6.21456 80.3598C6.19344 80.4654 6.14065 80.5498 6.05617 80.6132C5.99282 80.6765 5.91892 80.7188 5.83444 80.7399C5.70773 80.7716 5.61267 80.8032 5.45429 80.7716Z" fill="white"/>
<path d="M3.26849 78.3007C3.33185 78.1106 3.39523 77.9839 3.49026 77.8572C3.59585 77.7516 3.712 77.6566 3.83871 77.5721C3.9443 77.4876 4.071 77.4243 4.21883 77.3821C4.37722 77.3504 4.53564 77.3187 4.7257 77.3504C4.66235 77.5404 4.59897 77.6671 4.50394 77.7939C4.39834 77.9206 4.29275 78.0262 4.18716 78.1106C4.06045 78.174 3.9232 78.2268 3.77537 78.269C3.61698 78.3007 3.45856 78.3324 3.26849 78.3007Z" fill="white"/>
<path d="M17.3652 29.2001L17.1118 30.1504C17.1118 30.1715 17.1012 30.1821 17.0801 30.1821C17.059 30.1821 17.0484 30.1715 17.0484 30.1504L17.3652 29.2001Z" fill="white"/>
<path d="M16.89 31.7977V32.7797C16.89 32.843 16.8584 32.9064 16.795 32.9064C16.7316 32.9064 16.7 32.843 16.7 32.7797L16.7316 31.766C16.7316 31.7343 16.7633 31.7026 16.8267 31.7026C16.8583 31.7026 16.89 31.7343 16.89 31.7977Z" fill="white"/>
<path d="M17.1118 34.3953L17.3652 35.3456V35.3773C17.3968 35.4406 17.3652 35.5357 17.2702 35.5673C17.1751 35.599 17.0801 35.5357 17.0484 35.4406L16.8267 34.4586C16.8267 34.3953 16.8583 34.3002 16.9534 34.3002C17.0167 34.2685 17.0801 34.3002 17.1118 34.3953Z" fill="white"/>
<path d="M17.9988 36.8344L18.5056 37.6897H18.5373C18.6007 37.7848 18.569 37.9432 18.4422 38.0065C18.3472 38.0382 18.2205 38.0065 18.1571 37.9115L17.6503 37.0245C17.6186 36.9295 17.6503 36.8028 17.7454 36.7711C17.8404 36.7077 17.9354 36.7394 17.9988 36.8344Z" fill="white"/>
<path d="M19.5509 38.9252C19.7621 39.1575 20.005 39.3581 20.2796 39.5271C20.3746 39.6221 20.4062 39.7805 20.3429 39.8755C20.2479 40.0022 20.0895 40.0339 19.9944 39.9389C19.7199 39.7277 19.4559 39.4954 19.2025 39.242C19.1075 39.1786 19.1075 39.0202 19.2025 38.9252C19.2975 38.8301 19.4559 38.8301 19.5509 38.9252Z" fill="white"/>
<path d="M21.6733 40.319C21.969 40.4457 22.2646 40.5407 22.5603 40.6041C22.7187 40.6358 22.8137 40.7942 22.7821 40.9209C22.7504 41.0793 22.592 41.1743 22.4653 41.1426C22.4653 41.1426 22.4547 41.1426 22.4336 41.1426C22.0957 41.0581 21.7683 40.942 21.4516 40.7942C21.3248 40.7625 21.2615 40.6041 21.3248 40.4457C21.3882 40.319 21.5466 40.2556 21.6733 40.319Z" fill="white"/>
<path d="M24.1126 40.6991C24.4293 40.6569 24.725 40.5724 24.9996 40.4457C25.1579 40.3824 25.3163 40.4457 25.3797 40.6041C25.4747 40.7625 25.3797 40.9209 25.253 40.9842C25.253 40.9842 25.2424 40.9842 25.2213 40.9842C24.9045 41.1321 24.5666 41.2271 24.2076 41.2693C24.0492 41.2693 23.8908 41.1743 23.8908 41.0159C23.8592 40.8575 23.9542 40.6991 24.1126 40.6991Z" fill="white"/>
<path d="M26.2032 39.5271C26.3933 39.2948 26.5623 39.0413 26.7101 38.7668C26.7734 38.6084 26.9635 38.545 27.1219 38.6084C27.2486 38.7034 27.312 38.8935 27.2486 39.0202C27.1008 39.3581 26.9107 39.6643 26.6784 39.9389C26.5517 40.0656 26.3616 40.0656 26.2349 39.9705C26.1082 39.8755 26.1082 39.6538 26.2032 39.5271Z" fill="white"/>
<path d="M27.1537 37.2779L27.2804 36.2959V36.2642C27.2804 36.1059 27.4388 35.9791 27.6288 36.0108C27.7872 36.0108 27.9139 36.1692 27.8823 36.3593L27.7872 37.373C27.7555 37.5314 27.5972 37.6581 27.4388 37.6581C27.2487 37.6264 27.122 37.468 27.1537 37.3096V37.2779Z" fill="white"/>
<path d="M27.2803 34.6803C27.2803 34.5325 27.2592 34.4164 27.217 34.3319C27.1536 34.2263 27.0797 34.1524 26.9952 34.1101C26.8368 34.0151 26.8052 33.825 26.9002 33.6667C26.9636 33.5083 27.1536 33.4766 27.312 33.5716C27.5021 33.6667 27.6605 33.8567 27.7555 34.0468C27.8822 34.2685 27.9139 34.4586 27.9139 34.6487C27.9139 34.8071 27.7872 34.9654 27.6288 34.9971C27.4387 34.9971 27.312 34.8704 27.2803 34.712V34.6803Z" fill="white"/>
<path d="M25.8865 34.3319C25.7281 34.5536 25.6014 34.8071 25.5697 35.0922C25.5381 35.2822 25.3797 35.3773 25.1896 35.3456C25.0312 35.3139 24.9362 35.1555 24.9679 34.9971C25.0312 34.617 25.1579 34.2685 25.4114 33.9518C25.5381 33.825 25.7281 33.7934 25.8549 33.9201C25.9816 34.0151 26.0132 34.2052 25.8865 34.3319Z" fill="white"/>
<path d="M25.6965 36.581C25.802 36.8556 25.9499 37.1195 26.1399 37.373C26.235 37.4997 26.2033 37.6897 26.0766 37.7848C25.9499 37.8798 25.7915 37.8481 25.6648 37.7214C25.4536 37.4258 25.2847 37.109 25.1579 36.7711C25.0946 36.6444 25.1579 36.4543 25.3163 36.391C25.4747 36.3276 25.6331 36.4226 25.6965 36.581Z" fill="white"/>
<path d="M27.2803 38.4183C27.5549 38.5873 27.8399 38.7246 28.1356 38.8301C28.2623 38.8618 28.3257 39.0202 28.294 39.1786C28.2306 39.3053 28.0722 39.3687 27.9455 39.337C27.6076 39.2103 27.2909 39.0624 26.9952 38.8935C26.8685 38.7985 26.8052 38.6401 26.9002 38.5134C26.9635 38.3867 27.1536 38.3233 27.2803 38.4183Z" fill="white"/>
<path d="M29.6562 39.0836C29.973 39.0624 30.2898 39.0202 30.6065 38.9569C30.7333 38.9252 30.86 39.0202 30.8917 39.1469C30.9233 39.2736 30.8283 39.4003 30.7016 39.432C30.3637 39.5165 30.0258 39.5587 29.6879 39.5587C29.5295 39.5587 29.4344 39.4637 29.4028 39.337C29.4028 39.1786 29.5295 39.0836 29.6562 39.0836Z" fill="white"/>
<path d="M32.127 38.45L32.9823 37.9748C33.0774 37.9115 33.2041 37.9432 33.2674 38.0382C33.2991 38.1332 33.2674 38.2599 33.1724 38.3233L32.3171 38.8301C32.2221 38.8935 32.0637 38.8618 32.032 38.7668C31.9686 38.6718 32.0003 38.5134 32.0953 38.45H32.127Z" fill="white"/>
<path d="M34.2811 36.9928C34.5134 36.7816 34.7457 36.5599 34.978 36.3276V36.2959C35.0414 36.2642 35.1364 36.2642 35.1998 36.2959C35.2314 36.3593 35.2314 36.4543 35.1998 36.5177L34.8513 36.8978L34.5029 37.2463C34.4395 37.3096 34.3128 37.3096 34.2494 37.2463C34.1861 37.1829 34.1861 37.0562 34.2494 36.9928C34.2494 36.9928 34.26 36.9928 34.2811 36.9928Z" fill="white"/>
<path d="M35.9601 35.0288C36.129 34.7331 36.2768 34.4375 36.4036 34.1418C36.4352 34.1101 36.4669 34.0785 36.5302 34.1102C36.5619 34.1102 36.5936 34.1735 36.5619 34.2052C36.4564 34.522 36.3191 34.8282 36.1501 35.1238C36.1184 35.1872 36.0551 35.1872 36.0234 35.1555C35.96 35.1238 35.9284 35.0605 35.9601 35.0288Z" fill="white"/>
<path d="M36.7837 32.5579C36.7837 32.22 36.7415 31.8927 36.657 31.5759C36.6781 31.5759 36.6887 31.5759 36.6887 31.5759C36.7731 31.8927 36.8259 32.22 36.847 32.5579C36.847 32.5791 36.8365 32.5896 36.8154 32.5896C36.7943 32.5896 36.7837 32.5791 36.7837 32.5579Z" fill="white"/>
<path d="M23.0989 58.2486C23.3946 58.3754 23.7008 58.5126 24.0176 58.6605C24.0492 58.6605 24.081 58.7238 24.0493 58.7555C24.0176 58.8188 23.9859 58.8188 23.9226 58.8188L23.8909 58.7872C23.6375 58.6182 23.3735 58.4387 23.0989 58.2486Z" fill="white"/>
<path d="M25.3798 59.6108C25.6332 59.8431 25.8761 60.0754 26.1084 60.3077C26.2034 60.4027 26.2034 60.5611 26.1084 60.6562C26.0133 60.7512 25.8866 60.7512 25.7916 60.6562C25.7705 60.6562 25.7599 60.6562 25.7599 60.6562V60.6245C25.5487 60.3922 25.3375 60.1493 25.1263 59.8959L25.0947 59.8642C25.0313 59.8009 25.063 59.6742 25.1263 59.6108C25.2214 59.5474 25.3164 59.5474 25.3798 59.6108Z" fill="white"/>
<path d="M27.122 61.7015C27.291 61.9972 27.4494 62.3034 27.5972 62.6202C27.6605 62.7786 27.5972 62.937 27.4705 63.032C27.3121 63.0953 27.122 63.032 27.0587 62.8736L27.027 62.8419C26.9003 62.5674 26.763 62.2823 26.6152 61.9866V61.9549C26.5518 61.7966 26.6152 61.6382 26.7419 61.5748C26.9003 61.5115 27.0587 61.5748 27.122 61.7015Z" fill="white"/>
<path d="M28.104 64.2674L28.2308 65.2811C28.2624 65.4395 28.1357 65.5979 27.9773 65.6296C27.8189 65.6612 27.6606 65.5345 27.6289 65.3761V65.3445L27.5022 64.3941V64.3308C27.4705 64.1724 27.5655 64.014 27.7556 63.9823C27.914 63.9506 28.0724 64.0774 28.104 64.2674Z" fill="white"/>
<path d="M28.1991 66.9917C28.1357 67.3296 28.0618 67.6675 27.9773 68.0054C27.9456 68.1321 27.8189 68.1955 27.6922 68.1955C27.5655 68.1638 27.5021 68.0371 27.5021 67.9104V67.8787C27.5444 67.5619 27.5866 67.2451 27.6289 66.9284V66.8967C27.6605 66.7383 27.8189 66.6433 27.9456 66.6749C28.104 66.7066 28.1991 66.8333 28.1991 66.9917Z" fill="white"/>
<path d="M27.3754 69.5893L26.8685 70.4446C26.8369 70.508 26.7735 70.508 26.7419 70.4763C26.7102 70.4763 26.7101 70.4129 26.7101 70.3812L27.0903 69.4626V69.4309C27.122 69.3676 27.217 69.3359 27.312 69.3676C27.3754 69.3992 27.4388 69.4943 27.4071 69.5576C27.386 69.5787 27.3754 69.5893 27.3754 69.5893Z" fill="white"/>
<path d="M43.9746 80.8033C43.2776 82.2604 41.2503 82.989 39.6664 82.2604C38.8744 81.8803 38.3042 81.12 38.0508 80.2964C37.7974 79.4728 37.8291 78.5225 38.2409 77.7305C38.6527 76.9386 39.4446 76.3684 40.2683 76.1783C41.1236 75.9882 42.0422 76.0833 42.8025 76.5268C43.1826 76.7485 43.4994 77.0653 43.7212 77.4137C43.9746 77.7622 44.133 78.174 44.228 78.5541C44.3864 79.3778 44.323 80.2331 44.0379 80.9617C44.1963 80.1697 44.1646 79.3778 43.9112 78.6492C43.6895 77.9206 43.2143 77.287 42.5491 76.9702C41.2819 76.2733 39.4447 76.7485 38.8111 78.0156C38.1459 79.2827 38.621 81.12 39.8882 81.817C41.1869 82.5139 43.0559 82.1337 43.9746 80.8033Z" fill="white"/>
<path d="M47.2057 71.4266C46.9839 71.9652 46.7305 72.5037 46.4454 73.0105C46.1497 73.5385 45.8435 74.0453 45.5267 74.5311C45.2099 75.0168 44.8721 75.4919 44.513 75.9566C44.1329 76.4 43.7528 76.8435 43.3409 77.287C43.531 76.7168 43.8161 76.1783 44.1012 75.6715C44.3758 75.1646 44.6714 74.6683 44.9882 74.1826C45.3261 73.6758 45.6745 73.2006 46.0336 72.7571C46.382 72.2819 46.7622 71.8384 47.2057 71.4266Z" fill="white"/>
<path d="M45.8752 70.2229C45.6217 70.7931 45.3684 71.3633 45.1149 71.9018C44.8615 72.472 44.5869 73.0211 44.2913 73.549C43.9956 74.077 43.6683 74.605 43.3093 75.1329C42.9608 75.6398 42.5807 76.115 42.1372 76.5584C42.359 75.9882 42.6124 75.418 42.8975 74.8795C43.1509 74.3304 43.4254 73.7814 43.7211 73.2323C44.0168 72.7043 44.3441 72.1869 44.7031 71.6801C45.0199 71.1732 45.4 70.6664 45.8752 70.2229Z" fill="white"/>
<path d="M48.7579 71.1415C48.5678 71.2999 48.346 71.4266 48.0926 71.49C47.8709 71.585 47.5858 71.585 47.3324 71.585C47.0789 71.5428 46.8255 71.4689 46.5721 71.3633C46.3398 71.2577 46.1181 71.1099 45.9069 70.9198C45.7168 70.698 45.5584 70.4763 45.4634 70.2229C45.3683 69.9378 45.3366 69.6527 45.3683 69.3676C45.4 69.0825 45.495 68.7974 45.6218 68.5756C45.7696 68.3222 45.9385 68.1005 46.1286 67.9104C46.3398 67.7414 46.5721 67.5936 46.8255 67.4669C47.0789 67.3719 47.364 67.3085 47.6491 67.3085C47.9342 67.3085 48.2193 67.3719 48.4728 67.4986C48.7262 67.6253 48.9479 67.8154 49.138 68.0371C49.3069 68.2483 49.4336 68.4806 49.5181 68.734C49.6026 68.9874 49.6448 69.2409 49.6448 69.4943C49.6448 69.7794 49.5815 70.0328 49.4864 70.2546C49.3914 70.508 49.233 70.698 49.0429 70.8564C49.1697 70.6452 49.2647 70.4341 49.328 70.2229C49.3703 69.9906 49.3703 69.7583 49.328 69.526C49.2647 69.0825 49.0746 68.6707 48.7579 68.3539C48.61 68.2061 48.4411 68.0899 48.251 68.0054C48.0609 67.921 47.8709 67.8893 47.6808 67.9104C47.4696 67.9104 47.269 67.9526 47.0789 68.0371C46.8889 68.1216 46.7094 68.2377 46.5404 68.3856C46.3926 68.5334 46.2659 68.6918 46.1603 68.8607C46.0547 69.0508 45.9913 69.2409 45.9702 69.4309C45.928 69.6421 45.9385 69.8427 46.0019 70.0328C46.0652 70.2229 46.1603 70.4024 46.287 70.5713C46.4137 70.7297 46.6038 70.8881 46.7622 71.0148C46.9522 71.1204 47.1634 71.2049 47.3957 71.2682C47.6069 71.3316 47.8286 71.3527 48.0609 71.3316C48.2932 71.3105 48.5256 71.2471 48.7579 71.1415Z" fill="white"/>
<path d="M35.1364 75.1963C35.2631 75.323 35.3581 75.5131 35.4215 75.7031C35.4426 75.8932 35.4426 76.0938 35.4215 76.305C35.3792 76.4951 35.3159 76.6851 35.2314 76.8752C35.1258 77.0442 34.9886 77.2026 34.8196 77.3504C34.6612 77.4771 34.4712 77.6038 34.2494 77.6672C34.0171 77.7094 33.7954 77.72 33.5842 77.6988C33.1407 77.6038 32.7606 77.3187 32.4755 76.9702C32.2537 76.6218 32.0953 76.1783 32.127 75.7348C32.1481 75.5025 32.222 75.2913 32.3488 75.1013C32.4755 74.9112 32.6339 74.7528 32.8239 74.6261C32.9929 74.5205 33.1829 74.4466 33.3941 74.4043C33.6053 74.3621 33.8059 74.3515 33.996 74.3727C34.2072 74.3938 34.3972 74.4571 34.5662 74.5627C34.7246 74.6578 34.883 74.7845 34.978 74.9429C34.3761 74.4994 33.5842 74.6578 33.109 75.0379C32.6022 75.418 32.6338 76.1149 33.014 76.5901C33.3624 77.097 33.996 77.3187 34.5345 76.9702C35.0414 76.6218 35.3898 75.8932 35.1364 75.1963Z" fill="white"/>
<path d="M53.7946 84.8264C53.6996 85.0481 53.5412 85.2698 53.3512 85.4282C53.1611 85.5866 52.9394 85.7133 52.7176 85.7767C52.4642 85.8612 52.2108 85.9034 51.9573 85.9034C51.6828 85.8823 51.4188 85.8295 51.1654 85.745C50.9436 85.65 50.6902 85.4916 50.5002 85.3015C50.3101 85.0798 50.1834 84.858 50.0883 84.5729C49.9933 84.3195 49.9933 84.0344 49.9933 83.7493C50.0355 83.4748 50.1095 83.2213 50.2151 82.989C50.3206 82.7356 50.4685 82.5139 50.6586 82.3238C50.8486 82.1337 51.0704 81.9437 51.3238 81.8486C51.6089 81.7219 51.8623 81.6902 52.1474 81.6902C52.4325 81.7219 52.6859 81.7853 52.9393 81.912C53.1716 82.0387 53.3723 82.1971 53.5412 82.3872C53.7102 82.5983 53.8474 82.8201 53.953 83.0524C54.048 83.2741 54.1114 83.5276 54.1114 83.781C54.1114 84.0344 54.048 84.2878 53.953 84.4779C53.9952 84.2456 53.9952 84.0238 53.953 83.8127C53.8897 83.5804 53.8052 83.3692 53.6996 83.1791C53.4462 82.799 53.0977 82.5139 52.7176 82.3555C52.5275 82.2921 52.3375 82.2604 52.1474 82.2604C51.9573 82.2604 51.7672 82.3027 51.5772 82.3872C51.4082 82.4716 51.2498 82.5878 51.102 82.7356C50.9753 82.8834 50.8697 83.0524 50.7852 83.2425C50.7008 83.4325 50.648 83.6226 50.6268 83.8127C50.6057 84.0238 50.6163 84.2245 50.6586 84.4145C50.7008 84.6046 50.7852 84.7735 50.912 84.9214C51.0387 85.0692 51.1971 85.1959 51.3871 85.3015C51.7356 85.4916 52.1791 85.5549 52.6226 85.4916C52.8549 85.4493 53.066 85.3754 53.2561 85.2698C53.4673 85.1642 53.6468 85.0164 53.7946 84.8264Z" fill="white"/>
<path d="M41.7571 88.8177C41.6304 89.0078 41.4086 89.1662 41.1869 89.2612C40.9652 89.3563 40.7117 89.4196 40.4583 89.4513C40.2049 89.4513 39.9514 89.4196 39.698 89.3563C39.4657 89.2929 39.2334 89.1768 39.0011 89.0078C38.7794 88.8494 38.621 88.6594 38.4626 88.4059C38.3359 88.1525 38.2725 87.8674 38.2408 87.614C38.2408 87.3289 38.3042 87.0438 38.3676 86.7904C38.4732 86.5369 38.6104 86.3046 38.7794 86.0935C38.9695 85.8823 39.1806 85.7028 39.4129 85.5549C39.6347 85.4282 39.8881 85.3332 40.1732 85.2698C40.4583 85.2382 40.7434 85.2698 40.9968 85.3649C41.2503 85.4282 41.5037 85.5866 41.6937 85.7767C41.8838 85.9667 42.0422 86.1779 42.1689 86.4102C42.2745 86.6425 42.3484 86.8854 42.3906 87.1388C42.4223 87.3922 42.4223 87.6457 42.359 87.8674C42.2956 88.1208 42.1689 88.3426 42.0105 88.5326C42.1161 88.3003 42.1689 88.068 42.1689 87.8357C42.19 87.6245 42.1689 87.4134 42.1056 87.2022C41.9472 86.7587 41.6937 86.4102 41.377 86.1568C41.208 86.0301 41.0285 85.9351 40.8384 85.8717C40.6484 85.8506 40.4583 85.8506 40.2682 85.8717C40.0782 85.9139 39.8987 85.9879 39.7297 86.0935C39.5608 86.199 39.4129 86.3363 39.2862 86.5053C39.1384 86.6531 39.0328 86.822 38.9694 87.0121C38.885 87.2022 38.8427 87.3922 38.8427 87.5823C38.8427 87.7724 38.885 87.9624 38.9694 88.1525C39.0539 88.3215 39.1701 88.4798 39.3179 88.6277C39.6347 88.9128 40.0465 89.1028 40.49 89.1345C40.7011 89.1556 40.9229 89.1451 41.1552 89.1028C41.3664 89.0395 41.567 88.9444 41.7571 88.8177Z" fill="white"/>
<path d="M38.8427 77.3504C38.3992 77.2554 38.019 77.097 37.6389 76.9069C37.2588 76.7168 36.8998 76.5056 36.5619 76.2733C36.2029 76.041 35.865 75.7876 35.5482 75.5131C35.2314 75.2596 34.9146 74.9746 34.6295 74.6578C35.0413 74.7528 35.4532 74.9112 35.8016 75.1013C36.1818 75.2913 36.5513 75.5025 36.9103 75.7348C37.2482 75.9671 37.5756 76.2205 37.8923 76.4951C38.2091 76.7485 38.5259 77.0336 38.8427 77.3504Z" fill="white"/>
<path d="M38.3359 78.6808C37.9874 78.6175 37.6707 78.5225 37.3539 78.4274C37.0371 78.3007 36.7309 78.1634 36.4352 78.0156C36.1607 77.8678 35.8861 77.6883 35.6116 77.4771C35.3265 77.287 35.0731 77.0653 34.8513 76.8119C35.1998 76.8435 35.5165 76.9386 35.8333 77.0336C36.1501 77.1603 36.4563 77.2976 36.752 77.4454C37.0476 77.6144 37.3222 77.7939 37.5756 77.9839C37.8607 78.174 38.1141 78.3957 38.3359 78.6808Z" fill="white"/>
<path d="M44.1963 79.3461C44.8298 79.4094 45.4634 79.5995 46.097 79.7896C46.7094 79.9796 47.3113 80.1908 47.9026 80.4231C48.4939 80.6766 49.0747 80.9617 49.6449 81.2784C50.2151 81.5952 50.7536 81.9437 51.2604 82.3238C50.6269 82.1654 50.025 81.9437 49.4231 81.7219C48.8318 81.5107 48.2405 81.2784 47.6492 81.025C47.0579 80.7716 46.4771 80.5076 45.9069 80.2331C45.3367 79.948 44.7665 79.6629 44.1963 79.3461Z" fill="white"/>
<path d="M44.0379 80.9933C44.6398 81.0884 45.21 81.2468 45.7802 81.4368C46.3504 81.6269 46.8994 81.8486 47.4274 82.1021C47.9554 82.3555 48.4728 82.6511 48.9796 82.989C49.4548 83.3058 49.93 83.6543 50.3735 84.0978C49.8033 83.876 49.2647 83.6543 48.7262 83.4325C48.1982 83.1791 47.6703 82.9257 47.1423 82.6723C46.6143 82.4188 46.097 82.1548 45.5901 81.8803C45.0833 81.5952 44.5447 81.3101 44.0379 80.9933Z" fill="white"/>
<path d="M41.2819 82.2604C41.3452 82.5772 41.3769 82.8623 41.3769 83.1474C41.398 83.422 41.3875 83.7071 41.3453 84.0027C41.3241 84.2773 41.2713 84.5518 41.1869 84.8263C41.1235 85.1114 41.0285 85.3965 40.8701 85.6816C40.7751 85.3649 40.7117 85.0798 40.7117 84.7947C40.6906 84.499 40.6906 84.2139 40.7117 83.9394C40.7539 83.6437 40.8173 83.3586 40.9018 83.0841C40.9968 82.799 41.0918 82.5139 41.2819 82.2604Z" fill="white"/>
<path d="M39.8564 81.9437C39.9514 82.2921 39.9831 82.6089 40.0148 82.9573C40.0359 83.2741 40.0254 83.5909 39.9831 83.9077C39.962 84.2456 39.9092 84.5729 39.8247 84.8897C39.7614 85.2065 39.6664 85.5233 39.508 85.84C39.4129 85.4916 39.3496 85.1748 39.3496 84.858C39.3285 84.5201 39.3285 84.1928 39.3496 83.876C39.3918 83.5381 39.4446 83.2108 39.508 82.894C39.603 82.5772 39.698 82.2604 39.8564 81.9437Z" fill="white"/>
<path d="M44.7665 53.2752C45.8435 52.3883 47.0789 51.7547 48.251 50.9944C49.4231 50.2975 50.5318 49.4739 51.2604 48.3652C51.989 47.2565 52.2424 45.8626 52.0524 44.5955C51.894 43.2967 51.2287 42.0296 50.1517 41.301C49.1063 40.5724 47.7125 40.3507 46.4454 40.6358C45.8118 40.7625 45.21 41.0476 44.7031 41.4277C44.1963 41.8396 43.7844 42.3464 43.4993 42.9483C43.2142 43.5502 43.0559 44.2154 42.8975 44.8806L42.454 46.8763C42.1372 48.2385 41.8521 49.6006 41.5037 50.9311C41.7254 49.5689 41.9472 48.2068 42.1372 46.8446L42.4857 44.7856C42.6124 44.0887 42.7708 43.3918 43.0559 42.7265C43.3093 42.0613 43.7845 41.4594 44.3547 40.9843C44.9249 40.5408 45.5901 40.224 46.3187 40.0339C47.7442 39.7171 49.2964 39.9389 50.5318 40.7942C51.7356 41.6495 52.4642 43.075 52.6542 44.5005C52.8443 45.926 52.5275 47.4465 51.6722 48.6503C50.8486 49.8224 49.6132 50.6143 48.4094 51.2795C47.174 51.9131 45.9385 52.515 44.7665 53.2752Z" fill="white"/>
<path d="M44.1329 52.515C44.418 50.836 45.2734 49.2522 46.5405 48.0484C46.6672 47.89 46.8889 47.7316 47.1106 47.6366C47.3324 47.5416 47.5858 47.4782 47.9026 47.5416C48.0293 47.5416 48.2194 47.6683 48.3144 47.795C48.4095 47.9217 48.4728 48.1118 48.4411 48.2701C48.4095 48.6186 48.2194 48.872 47.966 49.0304C47.7125 49.1888 47.4274 49.1888 47.174 49.1571C46.9523 49.1255 46.7305 49.0938 46.5088 49.0304C46.0969 48.9354 45.6852 48.8087 45.2734 48.5869C45.0516 48.4602 44.8615 48.3335 44.6715 48.1434C44.5025 47.9534 44.3758 47.7422 44.2913 47.5099C44.1963 47.2881 44.1646 47.003 44.1646 46.7496C44.1963 46.4962 44.323 46.2111 44.5131 46.021C44.7348 45.7993 44.9882 45.6726 45.305 45.6726C45.4634 45.7042 45.6218 45.7359 45.7485 45.8626C45.9069 45.9577 45.9702 46.1161 46.0336 46.2744C46.0969 46.5912 46.0019 46.8446 45.9069 47.0347C45.8119 47.2565 45.7168 47.4465 45.6218 47.6366C44.7982 49.0938 43.9746 50.551 43.0559 51.9765C43.7211 50.4242 44.4497 48.9037 45.1783 47.3832C45.2733 47.1931 45.3684 47.003 45.4317 46.8446C45.4951 46.6863 45.5268 46.4962 45.4951 46.4012C45.4634 46.3061 45.4001 46.2744 45.2734 46.2744C45.1783 46.2744 45.0199 46.3378 44.9566 46.4328C44.7665 46.6229 44.7348 46.9714 44.8615 47.2881C44.9882 47.6049 45.2416 47.8583 45.5584 48.0167C45.9069 48.2068 46.287 48.3335 46.6671 48.4285C46.8889 48.4919 47.079 48.5236 47.2374 48.5552C47.4274 48.5869 47.5858 48.5552 47.6809 48.4919C47.7759 48.4602 47.8709 48.3335 47.8709 48.2385C47.8709 48.2068 47.8709 48.1751 47.8393 48.1434C47.8393 48.1118 47.8076 48.0801 47.7442 48.0801C47.6492 48.0484 47.4908 48.0801 47.3324 48.1434C47.1423 48.2068 47.0156 48.3018 46.8572 48.4285C45.6218 49.5056 44.6714 50.8994 44.1329 52.515Z" fill="white"/>
<path d="M41.1869 50.9311C41.6304 51.1212 42.0739 51.3429 42.4857 51.5963C42.8869 51.8709 43.2882 52.1348 43.6894 52.3883C43.8795 52.5467 44.1012 52.6417 44.2913 52.8001C44.513 52.9585 44.7031 53.1802 44.8298 53.4653C44.8932 53.592 44.9249 53.7504 44.8932 53.9405C44.8298 54.1305 44.7348 54.2573 44.6398 54.384C44.5131 54.479 44.3547 54.574 44.1646 54.6057C43.9745 54.6374 43.7211 54.574 43.5944 54.384L44.0379 54.0355C44.1963 54.2256 44.2913 54.479 44.2913 54.7324C44.2596 54.9858 44.1963 55.2393 44.0062 55.4293C43.8162 55.6194 43.5627 55.7144 43.341 55.7144C43.0875 55.7461 42.8025 55.6511 42.6124 55.4927L43.0559 55.0809C43.1826 55.2393 43.2459 55.461 43.2459 55.6511C43.2459 55.8728 43.1826 56.0629 43.0876 56.2213C42.8975 56.5381 42.6124 56.7915 42.2322 56.8865C41.8521 56.9815 41.5037 56.9182 41.2186 56.8232C40.9018 56.6964 40.6167 56.5697 40.3633 56.4113C40.1099 56.253 39.8564 56.0946 39.6347 55.9045C39.3812 55.7144 39.1278 55.461 39.0011 55.1126C38.9378 54.9542 38.9061 54.7324 38.9061 54.5424C38.9272 54.3523 38.9906 54.1833 39.0962 54.0355C39.1912 53.8771 39.3179 53.7504 39.508 53.6554C39.6663 53.5287 39.9198 53.5287 40.1098 53.592L40.0148 54.0672C39.793 54.0355 39.603 53.9088 39.508 53.7504C39.3812 53.5603 39.3179 53.402 39.3179 53.2119C39.3179 53.0218 39.3179 52.8318 39.4129 52.6734C39.508 52.515 39.6663 52.3566 39.8564 52.2932L39.7614 52.5783C39.4446 52.0081 39.6347 51.3112 40.1098 50.9628C40.6167 50.646 41.2819 50.8044 41.5987 51.2162C41.2185 50.8361 40.6167 50.836 40.2366 51.1528C39.8881 51.4379 39.8247 52.0398 40.0782 52.3883L40.2049 52.5467L39.9831 52.6417C39.7931 52.705 39.7297 52.9585 39.7614 53.1802C39.7614 53.2752 39.793 53.3703 39.8564 53.4653C39.9198 53.5287 39.9937 53.5709 40.0782 53.592L39.9831 54.0672C39.8247 54.0038 39.6664 54.1305 39.5713 54.3206C39.508 54.384 39.4763 54.5107 39.4763 54.6057C39.4763 54.7007 39.4763 54.7958 39.5396 54.8908C39.698 55.3026 40.2049 55.5877 40.6801 55.8728C41.1552 56.1579 41.662 56.3797 42.0738 56.2846C42.2639 56.253 42.454 56.0946 42.549 55.9045C42.6757 55.7461 42.6758 55.556 42.5807 55.461L42.9925 55.0175C43.0875 55.0809 43.1826 55.1126 43.3093 55.1126C43.4043 55.1126 43.531 55.0809 43.5944 55.0175C43.6578 54.9542 43.7211 54.8275 43.7211 54.7324C43.7211 54.6057 43.6894 54.479 43.6261 54.4156L44.0379 54.0672C44.0696 54.0672 44.0696 54.0989 44.1012 54.0989C44.1646 54.0989 44.2279 54.0672 44.2913 54.0038C44.3547 53.9722 44.3863 53.8771 44.418 53.8454C44.418 53.7821 44.418 53.6871 44.3863 53.6237C44.3547 53.4336 44.1963 53.2752 44.0379 53.1169C43.8795 52.9901 43.6894 52.8318 43.4993 52.6734C43.1192 52.3883 42.7391 52.0715 42.359 51.7547C41.9999 51.459 41.6093 51.1845 41.1869 50.9311Z" fill="white"/>
<path d="M69 1.9572C68.1447 3.44605 67.3528 4.93491 66.5291 6.42377L64.1533 10.9537C63.3614 12.4426 62.5694 13.9631 61.7141 15.4519C60.8588 16.9408 59.9718 18.398 59.0215 19.7918L58.7047 20.2353L58.5463 19.7601C58.3562 19.1582 58.1345 18.588 57.8494 18.0495C57.596 17.4793 57.3215 16.9197 57.0258 16.3706L56.1388 14.6917C55.8537 14.1532 55.5686 13.583 55.3152 13.0128C55.9487 14.0898 56.6457 15.1352 57.3109 16.2122C57.9445 17.2893 58.578 18.3663 59.0532 19.5701L58.578 19.5384C59.4967 18.0812 60.3203 16.624 61.1756 15.1352L63.6465 10.6686C64.4701 9.17974 65.2937 7.69088 66.1807 6.2337C67.0677 4.77652 67.9863 3.35102 69 1.9572Z" fill="white"/>
<path d="M68.6515 2.08391C66.0222 4.68149 63.2346 7.12068 60.3519 9.43316L58.1662 11.1438L55.9804 12.8227C54.481 13.9208 52.9816 14.9979 51.4821 16.0538L51.102 16.3072L51.1337 15.8638C51.1971 14.9768 51.3554 14.0898 51.5772 13.2345L52.2107 10.6686C52.084 11.5556 51.9256 12.4109 51.7989 13.2979C51.6722 14.1532 51.5772 15.0401 51.5455 15.8954L51.2287 15.7054L55.6003 12.3475L59.9718 8.95799C62.8861 6.67719 65.7688 4.39639 68.6515 2.08391Z" fill="white"/>
<path d="M69 1.70377C67.6062 2.49572 66.2124 3.22431 64.8185 3.92122C63.4247 4.64981 62.0309 5.34672 60.6371 6.07531C59.9402 6.45544 59.2538 6.83558 58.578 7.21571L57.5326 7.75423C57.1947 7.96542 56.8569 8.16605 56.519 8.35611C55.1568 9.14806 53.7946 9.90833 52.3691 10.6052C53.6363 9.68658 54.9351 8.7996 56.2655 7.9443C57.5643 7.05732 58.9581 6.26538 60.352 5.53679C61.7458 4.79764 63.1607 4.11129 64.5968 3.47773C66.054 2.84417 67.5217 2.25285 69 1.70377Z" fill="white"/>
<path d="M52.1474 10.7953L49.6132 9.3698C49.1908 9.1375 48.779 8.89464 48.3778 8.64121C47.9659 8.38779 47.5541 8.10269 47.2057 7.75424C47.6809 7.84927 48.156 8.00766 48.5995 8.19772C49.0641 8.36667 49.5076 8.57786 49.93 8.83128C50.3735 9.06358 50.7853 9.33813 51.1654 9.6549C51.5455 9.97168 51.894 10.3518 52.1474 10.7953Z" fill="white"/>
<path d="M68.7149 1.70377C66.9198 2.21062 65.1247 2.7069 63.3296 3.19263C61.5557 3.69947 59.75 4.17464 57.9761 4.68149L52.6225 6.20202C50.8275 6.70887 49.0324 7.20515 47.2373 7.69088C48.9479 6.97285 50.6902 6.31817 52.4641 5.72685C54.2064 5.12498 56.0121 4.58645 57.786 4.07961C59.5917 3.57276 61.3973 3.12927 63.2029 2.71746C65.0402 2.31621 66.8776 1.97831 68.7149 1.70377Z" fill="white"/>
<path d="M66.8776 87.7724C67.226 87.7407 67.5428 87.5823 67.7646 87.3289C67.7646 87.3289 67.7962 87.3289 67.8279 87.3289C67.8596 87.3606 67.8596 87.3922 67.8279 87.4239C67.5745 87.6457 67.226 87.7724 66.8776 87.7724Z" fill="white"/>
<path d="M68.4297 85.9034C68.4931 85.5866 68.5353 85.2593 68.5565 84.9214C68.5565 84.858 68.6198 84.763 68.7149 84.763C68.8099 84.7947 68.8732 84.858 68.8732 84.953C68.831 85.2909 68.7676 85.6288 68.6831 85.9667C68.6515 86.0301 68.5881 86.0618 68.5248 86.0301C68.4614 86.0301 68.4297 85.9667 68.4297 85.9034Z" fill="white"/>
<path d="M68.5248 83.3058L68.4297 82.3238V82.2921C68.4297 82.1654 68.5248 82.0704 68.6515 82.0387C68.7782 82.0387 68.8732 82.1337 68.9049 82.2604L68.9366 83.2741C68.9366 83.4008 68.8416 83.4959 68.7465 83.4959C68.6198 83.4959 68.5248 83.4008 68.5248 83.3058Z" fill="white"/>
<path d="M68.1447 80.7082L67.9229 79.7579V79.7262C67.8913 79.5995 67.9863 79.4411 68.113 79.4094C68.2714 79.3461 68.4298 79.4411 68.4615 79.5995L68.6832 80.6132C68.7149 80.7399 68.6198 80.8983 68.4615 80.93C68.3347 80.93 68.208 80.8666 68.1763 80.7082H68.1447Z" fill="white"/>
<path d="M67.4161 78.2057L67.0359 77.287C66.9726 77.1286 67.0359 76.9386 67.1943 76.8752C67.3527 76.8118 67.5428 76.8752 67.6062 77.0336C67.6062 77.0336 67.6062 77.0442 67.6062 77.0653L67.9863 77.9839C68.0496 78.1423 67.9546 78.3324 67.7962 78.3957C67.6695 78.4591 67.4794 78.3641 67.4161 78.2057Z" fill="white"/>
<path d="M66.3074 75.8298L65.8005 75.0062C65.7055 74.8478 65.7372 74.6578 65.8956 74.5627C66.054 74.4677 66.244 74.5311 66.3391 74.6578L66.8459 75.5447C66.9409 75.6714 66.8776 75.8615 66.7509 75.9565C66.5925 76.0516 66.4024 76.0199 66.3074 75.8615V75.8298Z" fill="white"/>
<path d="M64.8502 73.6757L64.2166 72.9472H64.185C64.0899 72.8204 64.0899 72.5987 64.2483 72.5037C64.375 72.4086 64.5651 72.4086 64.6601 72.5353L65.3254 73.2956C65.4521 73.4223 65.4204 73.6124 65.2937 73.7391C65.167 73.8341 64.9769 73.8341 64.8502 73.7074V73.6757Z" fill="white"/>
<path d="M63.0762 71.8068L62.3159 71.1415C62.1892 71.0465 62.1892 70.8881 62.2842 70.7614C62.3793 70.6347 62.5376 70.6347 62.6644 70.7297L63.4563 71.3633C63.5513 71.4583 63.583 71.6484 63.488 71.7751C63.393 71.9018 63.2029 71.9018 63.0762 71.8068Z" fill="white"/>
<path d="M61.0172 70.1912L60.1619 69.6527C60.0669 69.5893 60.0352 69.4626 60.0985 69.3676C60.1619 69.2408 60.2886 69.2092 60.3836 69.2725L61.2706 69.7794C61.3656 69.8427 61.429 70.0011 61.3656 70.0961C61.3023 70.2229 61.1439 70.2545 61.0172 70.1912Z" fill="white"/>
<path d="M58.7047 68.8924L57.8177 68.5123C57.7227 68.4806 57.691 68.3856 57.7227 68.3222C57.7544 68.2588 57.8494 68.2272 57.9128 68.2272L58.8631 68.5756C58.9581 68.6073 58.9898 68.7023 58.9581 68.7974C58.9265 68.8924 58.8314 68.9241 58.7364 68.8924H58.7047Z" fill="white"/>
<path d="M56.2655 67.9421C55.9487 67.8576 55.632 67.7731 55.3152 67.6886C55.2941 67.6886 55.2835 67.6781 55.2835 67.657C55.2835 67.657 55.2941 67.657 55.3152 67.657C55.632 67.6992 55.9593 67.752 56.2972 67.8153C56.3289 67.8153 56.3606 67.847 56.3606 67.9104C56.3606 67.9421 56.2972 67.9737 56.2655 67.9421Z" fill="white"/>
<path d="M64.8185 42.1246C64.9453 41.8079 64.9769 41.4911 64.9453 41.1426C64.9453 41.1215 64.9664 41.111 65.0086 41.111C65.0297 41.111 65.0403 41.1215 65.0403 41.1426C65.0403 41.4911 64.9769 41.8395 64.8185 42.1246Z" fill="white"/>
<path d="M64.5334 39.5904L64.0899 38.6718C64.0583 38.6084 64.09 38.5451 64.1533 38.5134C64.2167 38.4817 64.28 38.5134 64.3117 38.5767L64.6918 39.5271C64.7235 39.5587 64.6918 39.6221 64.6285 39.6221C64.5968 39.6538 64.5334 39.6221 64.5334 39.5904Z" fill="white"/>
<path d="M63.2663 37.2779L62.6644 36.486C62.601 36.391 62.6011 36.2959 62.6961 36.2326C62.7911 36.1692 62.8861 36.1692 62.9495 36.2643C62.9495 36.2643 62.96 36.2643 62.9812 36.2643L63.5197 37.0879C63.5831 37.1829 63.5514 37.2779 63.488 37.3413C63.4247 37.373 63.2979 37.373 63.2663 37.2779Z" fill="white"/>
<path d="M61.5874 35.2822L60.8588 34.5853C60.7638 34.4903 60.7638 34.3319 60.8588 34.2369C60.9538 34.1418 61.0806 34.1418 61.1756 34.2369C61.1756 34.2369 61.1861 34.2369 61.2073 34.2369L61.9042 34.9655C61.9992 35.0605 61.9676 35.1872 61.9042 35.2822C61.8092 35.3773 61.6825 35.3773 61.5874 35.2822Z" fill="white"/>
<path d="M59.5917 33.54L58.8314 32.9698L58.7997 32.9381C58.673 32.8747 58.673 32.6847 58.7364 32.558C58.8314 32.4312 59.0215 32.4312 59.1482 32.4946C59.1482 32.5157 59.1482 32.5263 59.1482 32.5263L59.9401 33.1282C60.0352 33.2232 60.0668 33.3816 59.9718 33.5083C59.9084 33.6033 59.7184 33.635 59.6233 33.54H59.5917Z" fill="white"/>
<path d="M57.4376 32.0511L56.614 31.5443H56.5824C56.4556 31.4492 56.4239 31.2592 56.4873 31.1324C56.5823 30.9741 56.7724 30.9424 56.8991 31.0057L57.7544 31.5443C57.9128 31.6393 57.9445 31.8294 57.8495 31.9561C57.7544 32.0828 57.5961 32.1461 57.4693 32.0511H57.4376Z" fill="white"/>
<path d="M55.1568 30.7206L54.3015 30.2772C54.1431 30.1821 54.0798 29.992 54.1431 29.8337C54.2381 29.7069 54.4282 29.6436 54.5866 29.7069L55.4736 30.1821C55.6003 30.2771 55.6636 30.4672 55.6003 30.5939C55.5053 30.7523 55.3152 30.8157 55.1885 30.7206H55.1568Z" fill="white"/>
<path d="M52.8127 29.5486L51.9257 29.1051C51.7673 29.0417 51.704 28.8516 51.7673 28.6933C51.8307 28.5349 52.0207 28.4715 52.1791 28.5349L53.0978 28.9784C53.2562 29.0417 53.3195 29.2318 53.2245 29.3902C53.1611 29.5486 52.9711 29.6119 52.8127 29.5486Z" fill="white"/>
<path d="M50.4051 28.3765L49.5181 27.9647C49.3598 27.8696 49.2964 27.6796 49.3915 27.5529C49.4548 27.3945 49.6449 27.3311 49.7716 27.3945H49.8032L50.6902 27.838C50.8486 27.9013 50.912 28.0914 50.8486 28.2498C50.7536 28.4082 50.5635 28.4715 50.4051 28.3765Z" fill="white"/>
<path d="M48.0293 27.2044L47.1423 26.7292C47.0156 26.6659 46.9523 26.4758 47.0473 26.3491C47.1106 26.1907 47.269 26.159 47.4274 26.2224L48.3144 26.6659C48.4411 26.7609 48.5045 26.9193 48.4411 27.0777C48.3778 27.2361 48.1877 27.2678 48.0293 27.2044Z" fill="white"/>
<path d="M45.6851 25.9056L44.8615 25.3671C44.7348 25.3037 44.7031 25.1137 44.7665 25.0186C44.8298 24.8919 44.9883 24.8602 45.115 24.9236L45.9702 25.4304C46.1286 25.5255 46.1603 25.6839 46.0653 25.8106C46.0019 25.9373 45.8435 25.969 45.7168 25.9056C45.7168 25.9056 45.7063 25.9056 45.6851 25.9056Z" fill="white"/>
<path d="M43.4677 24.4168L42.6757 23.7832C42.5807 23.7198 42.5807 23.5615 42.6441 23.4664C42.7074 23.3714 42.8658 23.3714 42.9609 23.4347L43.7528 24.0366C43.8795 24.1 43.8795 24.2584 43.8161 24.3534C43.7211 24.4801 43.5944 24.4801 43.4677 24.4168Z" fill="white"/>
<path d="M41.4403 22.6428L40.7434 21.9142C40.68 21.8508 40.68 21.7558 40.7434 21.6925C40.8067 21.6291 40.9018 21.6291 40.9651 21.6925H40.9968L41.6937 22.3894C41.7887 22.4527 41.7887 22.5794 41.6937 22.6428C41.6304 22.7378 41.5353 22.7378 41.4403 22.6745C41.4403 22.6745 41.4403 22.6639 41.4403 22.6428Z" fill="white"/>
<path d="M39.6981 20.6154C39.508 20.3409 39.3391 20.0452 39.1912 19.7284C39.1912 19.6968 39.1912 19.6334 39.2546 19.6334C39.2863 19.6017 39.3179 19.6334 39.3496 19.6651C39.5186 19.9396 39.6981 20.2142 39.8882 20.4887C39.9198 20.5204 39.9198 20.6154 39.8882 20.6471C39.8248 20.6788 39.7614 20.6788 39.6981 20.6154Z" fill="white"/>
<path d="M38.8427 18.1129C38.8638 17.8594 38.9166 17.6271 39.0011 17.416C38.9377 17.6483 38.9061 17.8806 38.9061 18.1129C38.9061 18.134 38.8955 18.1445 38.8744 18.1445C38.8533 18.1445 38.8427 18.134 38.8427 18.1129Z" fill="white"/>
<path d="M35.2315 10.8586C35.6116 10.2568 35.8967 9.59153 36.1818 8.95798C36.4352 8.29274 36.6887 7.62751 36.9104 6.96227C37.3856 5.63181 37.8291 4.30134 38.4943 3.03422L38.716 3.31933C37.3222 3.69946 35.9284 4.17463 34.5979 4.7765C33.2674 5.34671 31.9687 6.01194 30.7332 6.80389L30.6382 6.23368L34.9464 7.02563L39.2546 7.84925L39.0328 8.41945C37.639 7.56415 36.3085 6.58214 35.0731 5.53677C33.806 4.4914 32.6339 3.351 31.5568 2.14725L31.9053 1.89382C32.6656 3.31933 33.2991 4.7765 33.8376 6.29704C34.4078 7.7859 34.883 9.30643 35.2315 10.8586C34.7563 9.33811 34.2178 7.84925 33.6159 6.3604C32.9823 4.90322 32.3171 3.47771 31.5252 2.11557L30.5748 0.5L31.8736 1.86215C32.9823 3.03422 34.1861 4.11127 35.4215 5.12496C36.657 6.13865 37.9874 7.05731 39.3496 7.88093L40.7434 8.76791L39.1278 8.45113L34.8197 7.65919L30.5115 6.83556L29.7512 6.67717L30.4164 6.29704C31.6836 5.53677 33.014 4.83986 34.4078 4.30134C35.77 3.73114 37.1955 3.25597 38.621 2.93919L39.0645 2.81248L38.8427 3.22429C38.4943 3.82617 38.2092 4.45973 37.9241 5.09328C37.639 5.72684 37.3855 6.39207 37.1321 7.05731C36.5936 8.3561 36.0551 9.68657 35.2315 10.8586Z" fill="white"/>
<path d="M68.4298 54.384C67.828 54.0355 67.1627 53.7821 66.4975 53.5287C65.8639 53.2752 65.167 53.0852 64.5018 52.8634C63.1713 52.4199 61.8092 52.0398 60.5104 51.3746L60.7955 51.1528C61.239 52.5466 61.7458 53.9088 62.3794 55.2393C63.0129 56.5381 63.7098 57.8368 64.5334 59.0406L63.9633 59.1356L64.6285 54.8274L65.3254 50.4876L65.8956 50.7093C65.072 52.1032 64.1533 53.4653 63.1396 54.7324C62.1259 56.0312 61.0172 57.235 59.8452 58.3437L59.5917 58.0269C60.9855 57.2033 62.4427 56.538 63.8999 55.9362C65.3887 55.3343 66.9093 54.8274 68.4298 54.384C66.941 54.9225 65.4521 55.4927 64.0266 56.1579C62.5694 56.8231 61.1439 57.5517 59.8134 58.3754L58.2296 59.3891L59.56 58.0586C60.7004 56.9182 61.7141 55.6827 62.6962 54.4156C63.6782 53.1168 64.5651 51.7864 65.3571 50.3926L66.1807 48.9671L65.9273 50.5826L65.2621 54.9225L64.5651 59.2307L64.4384 60.0226L64.0266 59.3574C63.2347 58.1219 62.5061 56.7915 61.9042 55.461C61.3023 54.0989 60.7955 52.705 60.4153 51.2795L60.2886 50.8044L60.7004 51.0261C61.3023 51.3746 61.9359 51.6597 62.6011 51.9131C63.2663 52.1665 63.9316 52.3883 64.5651 52.6417C65.8956 53.1485 67.2578 53.6237 68.4298 54.384Z" fill="white"/>
</svg>
