<svg width="288" height="184" viewBox="0 0 288 184" fill="none" xmlns="http://www.w3.org/2000/svg">
<path d="M107.155 23.5105L97.5468 17.9651V29.0601L107.155 23.5105Z" stroke="#263238" stroke-miterlimit="10"/>
<path d="M113.595 23.3955C113.542 23.568 113.515 23.7474 113.514 23.9279C113.514 23.9875 113.514 24.0472 113.514 24.1068H110.311V23.3955H113.595Z" stroke="#263238" stroke-miterlimit="10"/>
<path d="M152.23 23.3955V24.1068H117.058C117.058 24.0472 117.058 23.9875 117.058 23.9279C117.057 23.7474 117.03 23.568 116.977 23.3955H152.23Z" stroke="#263238" stroke-miterlimit="10"/>
<path d="M117.066 23.9279C117.066 23.9875 117.066 24.0471 117.066 24.1068C117.023 24.5456 116.818 24.9527 116.492 25.2489C116.165 25.545 115.74 25.7091 115.299 25.7091C114.858 25.7091 114.433 25.545 114.106 25.2489C113.779 24.9527 113.575 24.5456 113.531 24.1068C113.531 24.0471 113.531 23.9875 113.531 23.9279C113.532 23.7474 113.559 23.568 113.612 23.3955C113.721 23.0277 113.945 22.7048 114.252 22.4751C114.559 22.2455 114.932 22.1214 115.316 22.1214C115.699 22.1214 116.073 22.2455 116.38 22.4751C116.687 22.7048 116.911 23.0277 117.02 23.3955C117.061 23.5697 117.077 23.7491 117.066 23.9279Z" stroke="#263238" stroke-miterlimit="10"/>
<path d="M18.0544 147.285V159.372L12.854 155.595H10.371V151.063H12.854L18.0544 147.285Z" stroke="#263238" stroke-miterlimit="10"/>
<path d="M22.6032 148.456C23.2967 149.055 23.8455 149.803 24.2082 150.644C24.5709 151.485 24.738 152.398 24.697 153.313C24.656 154.228 24.4079 155.122 23.9715 155.927C23.535 156.733 22.9216 157.429 22.1772 157.963" stroke="#263238" stroke-linecap="round" stroke-linejoin="round"/>
<path d="M19.8518 150.203C20.4094 150.438 20.8852 150.833 21.2198 151.337C21.5543 151.842 21.7327 152.434 21.7327 153.039C21.7327 153.644 21.5543 154.236 21.2198 154.741C20.8852 155.245 20.4094 155.64 19.8518 155.876" stroke="#263238" stroke-linecap="round" stroke-linejoin="round"/>
<path d="M147.992 161.285C148.308 161.285 148.622 161.222 148.914 161.101C149.206 160.98 149.471 160.802 149.695 160.578C149.919 160.355 150.096 160.089 150.216 159.796C150.337 159.504 150.399 159.19 150.398 158.874V151.242C150.412 150.917 150.36 150.593 150.245 150.289C150.13 149.984 149.955 149.707 149.73 149.472C149.505 149.237 149.235 149.051 148.936 148.923C148.637 148.796 148.315 148.73 147.99 148.73C147.665 148.73 147.343 148.796 147.044 148.923C146.745 149.051 146.475 149.237 146.25 149.472C146.025 149.707 145.85 149.984 145.735 150.289C145.62 150.593 145.568 150.917 145.581 151.242V158.874C145.581 159.191 145.644 159.504 145.765 159.797C145.886 160.089 146.063 160.355 146.287 160.579C146.511 160.803 146.777 160.98 147.069 161.101C147.362 161.222 147.675 161.285 147.992 161.285Z" stroke="#263238" stroke-miterlimit="10"/>
<path d="M152.268 158.759V155.177C152.268 155.06 152.222 154.948 152.139 154.865C152.056 154.783 151.944 154.736 151.827 154.736C151.71 154.736 151.598 154.783 151.515 154.865C151.433 154.948 151.386 155.06 151.386 155.177V158.759C151.386 159.655 151.031 160.514 150.397 161.147C149.764 161.781 148.905 162.137 148.009 162.137C147.113 162.137 146.254 161.781 145.621 161.147C144.987 160.514 144.631 159.655 144.631 158.759V155.177C144.631 155.061 144.585 154.949 144.503 154.867C144.421 154.785 144.309 154.739 144.193 154.739C144.076 154.739 143.965 154.785 143.883 154.867C143.8 154.949 143.754 155.061 143.754 155.177V158.759C143.755 159.814 144.148 160.831 144.856 161.614C145.564 162.396 146.537 162.887 147.587 162.993V166.949H145.091C144.974 166.949 144.862 166.996 144.78 167.079C144.697 167.161 144.651 167.273 144.651 167.39C144.651 167.507 144.697 167.619 144.78 167.702C144.862 167.785 144.974 167.831 145.091 167.831H150.965C151.082 167.831 151.194 167.785 151.276 167.702C151.359 167.619 151.406 167.507 151.406 167.39C151.406 167.273 151.359 167.161 151.276 167.079C151.194 166.996 151.082 166.949 150.965 166.949H148.469V162.993C149.513 162.879 150.478 162.384 151.179 161.603C151.88 160.822 152.268 159.809 152.268 158.759Z" stroke="#263238" stroke-miterlimit="10"/>
<path d="M189.974 16.3552C189.974 18.232 189.418 20.0666 188.375 21.6271C187.332 23.1877 185.85 24.4039 184.116 25.1222C182.382 25.8404 180.474 26.0283 178.634 25.6622C176.793 25.296 175.102 24.3922 173.775 23.0651C172.448 21.738 171.544 20.0472 171.178 18.2064C170.812 16.3657 171 14.4577 171.718 12.7237C172.436 10.9898 173.652 9.50776 175.213 8.46506C176.773 7.42236 178.608 6.86582 180.485 6.86582C181.731 6.8647 182.966 7.10938 184.118 7.58587C185.269 8.06236 186.316 8.76129 187.197 9.64268C188.079 10.5241 188.778 11.5706 189.254 12.7224C189.731 13.8742 189.975 15.1087 189.974 16.3552Z" stroke="#263238" stroke-miterlimit="10"/>
<path d="M180.485 17.8246C182.644 17.8246 184.395 16.074 184.395 13.9147C184.395 11.7553 182.644 10.0048 180.485 10.0048C178.325 10.0048 176.575 11.7553 176.575 13.9147C176.575 16.074 178.325 17.8246 180.485 17.8246Z" stroke="#263238" stroke-miterlimit="10"/>
<path d="M186.362 23.8086C184.689 25.131 182.618 25.8504 180.485 25.8504C178.352 25.8504 176.281 25.131 174.607 23.8086C174.803 22.3886 175.505 21.0873 176.586 20.1453C177.666 19.2033 179.051 18.6843 180.485 18.6843C181.918 18.6843 183.303 19.2033 184.384 20.1453C185.464 21.0873 186.167 22.3886 186.362 23.8086Z" stroke="#263238" stroke-miterlimit="10"/>
<path d="M251.263 153.363C251.264 155.001 250.779 156.602 249.869 157.964C248.96 159.327 247.667 160.388 246.154 161.016C244.641 161.643 242.975 161.807 241.369 161.488C239.762 161.169 238.287 160.38 237.129 159.222C235.97 158.063 235.182 156.588 234.862 154.981C234.543 153.375 234.707 151.71 235.335 150.197C235.962 148.683 237.024 147.39 238.386 146.481C239.748 145.571 241.35 145.086 242.988 145.087C244.075 145.086 245.152 145.298 246.156 145.714C247.161 146.129 248.074 146.739 248.843 147.507C249.612 148.276 250.221 149.189 250.636 150.194C251.052 151.199 251.265 152.276 251.263 153.363Z" stroke="#263238" stroke-miterlimit="10"/>
<path d="M245.386 153.641C246.717 152.311 246.717 150.153 245.386 148.823C244.055 147.492 241.898 147.492 240.567 148.823C239.237 150.153 239.237 152.311 240.567 153.641C241.898 154.972 244.055 154.972 245.386 153.641Z" stroke="#263238" stroke-miterlimit="10"/>
<path d="M248.103 159.862C246.642 161.015 244.836 161.643 242.975 161.643C241.114 161.643 239.307 161.015 237.847 159.862C238.022 158.627 238.637 157.496 239.579 156.678C240.521 155.859 241.727 155.409 242.975 155.409C244.223 155.409 245.428 155.859 246.371 156.678C247.313 157.496 247.928 158.627 248.103 159.862Z" stroke="#263238" stroke-miterlimit="10"/>
<path d="M273.76 153.363C273.761 155.001 273.276 156.602 272.366 157.964C271.457 159.327 270.164 160.388 268.65 161.016C267.137 161.643 265.472 161.807 263.866 161.488C262.259 161.169 260.783 160.38 259.625 159.222C258.467 158.063 257.678 156.588 257.359 154.981C257.04 153.375 257.204 151.71 257.831 150.197C258.458 148.683 259.52 147.39 260.883 146.481C262.245 145.571 263.846 145.086 265.484 145.087C266.571 145.086 267.648 145.298 268.653 145.714C269.658 146.129 270.571 146.739 271.34 147.507C272.108 148.276 272.718 149.189 273.133 150.194C273.548 151.199 273.761 152.276 273.76 153.363Z" stroke="#263238" stroke-miterlimit="10"/>
<path d="M268.803 152.024C269.237 150.193 268.104 148.357 266.273 147.923C264.442 147.489 262.606 148.621 262.172 150.453C261.738 152.284 262.871 154.12 264.702 154.554C266.533 154.988 268.369 153.855 268.803 152.024Z" stroke="#263238" stroke-miterlimit="10"/>
<path d="M270.612 159.862C269.152 161.015 267.345 161.643 265.484 161.643C263.623 161.643 261.817 161.015 260.356 159.862C260.531 158.627 261.146 157.496 262.088 156.678C263.03 155.859 264.236 155.409 265.484 155.409C266.732 155.409 267.938 155.859 268.88 156.678C269.822 157.496 270.437 158.627 270.612 159.862Z" stroke="#263238" stroke-miterlimit="10"/>
<path d="M29.1878 62.8691C29.187 64.5057 28.7009 66.1052 27.7911 67.4656C26.8812 68.8259 25.5885 69.8859 24.0763 70.5116C22.564 71.1373 20.9003 71.3006 19.2953 70.9808C17.6902 70.661 16.2161 69.8725 15.0592 68.715C13.9023 67.5575 13.1145 66.0829 12.7955 64.4777C12.4766 62.8726 12.6407 61.2089 13.2672 59.697C13.8937 58.1851 14.9544 56.8929 16.3152 55.9837C17.676 55.0746 19.2758 54.5894 20.9123 54.5894C21.9998 54.5882 23.0767 54.8017 24.0815 55.2174C25.0863 55.6332 25.9993 56.2431 26.768 57.0122C27.5367 57.7813 28.1462 58.6946 28.5614 59.6996C28.9766 60.7046 29.1895 61.7817 29.1878 62.8691Z" stroke="#263238" stroke-miterlimit="10"/>
<path d="M24.2807 61.2879C24.5822 59.4304 23.3208 57.6802 21.4633 57.3786C19.6058 57.0771 17.8556 58.3385 17.5541 60.196C17.2526 62.0535 18.514 63.8037 20.3715 64.1052C22.2289 64.4067 23.9792 63.1453 24.2807 61.2879Z" stroke="#263238" stroke-miterlimit="10"/>
<path d="M26.0403 69.3685C24.5804 70.5231 22.7736 71.1512 20.9123 71.1512C19.051 71.1512 17.2442 70.5231 15.7843 69.3685C15.9592 68.133 16.5742 67.0021 17.5164 66.1839C18.4586 65.3657 19.6645 64.9152 20.9123 64.9152C22.1601 64.9152 23.366 65.3657 24.3082 66.1839C25.2503 67.0021 25.8654 68.133 26.0403 69.3685Z" stroke="#263238" stroke-miterlimit="10"/>
<path d="M275.638 173.794H286.622" stroke="#263238" stroke-miterlimit="10"/>
<path d="M74.556 173.794H271.886" stroke="#263238" stroke-miterlimit="10"/>
<path d="M0 173.794H70.0541" stroke="#263238" stroke-miterlimit="10"/>
<path d="M120.342 58.5801C122.263 59.432 126.956 59.3127 126.956 59.3127C126.956 59.3127 125.951 56.2376 125.861 56.0545C124.831 53.8993 121.573 50.343 118.923 50.7007C117.015 50.9563 115.942 52.8686 116.368 54.666C116.794 56.4633 118.706 57.8646 120.342 58.5801Z" fill="#263238"/>
<path d="M121.96 72.1753C123.953 72.4649 128.14 71.251 128.472 71.1488C129.169 73.5464 130.022 75.8955 131.028 78.1806C131.603 79.5137 132.225 80.8383 132.863 82.1587C132.484 81.6007 132.135 81.1024 132.08 81.0385C130.521 79.2326 126.441 76.6644 123.987 77.7079C122.211 78.4617 121.696 80.5828 122.586 82.2012C123.476 83.8197 125.67 84.6758 127.433 84.9314C129.196 85.1869 132.817 84.2286 133.766 83.9603C134.013 84.4671 134.26 84.9739 134.512 85.4765C135.726 87.8914 136.948 90.2936 138.072 92.6915C138.468 93.5433 138.831 94.3951 139.193 95.2257C138.852 94.7273 138.562 94.3142 138.511 94.2546C136.948 92.4487 132.868 89.8762 130.419 90.9239C130.015 91.109 129.655 91.3768 129.362 91.7101C129.069 92.0434 128.849 92.4346 128.717 92.8584C128.585 93.2821 128.543 93.729 128.595 94.1698C128.647 94.6107 128.791 95.0357 129.017 95.4173C129.929 97.0741 132.105 97.8919 133.869 98.1474C135.632 98.403 138.903 97.5384 140.027 97.2232C140.372 98.1006 140.722 98.978 141.015 99.8426C141.207 100.439 141.441 100.997 141.586 101.606C141.731 102.215 141.918 102.798 142.08 103.386C142.353 104.528 142.647 105.703 142.885 106.828C143.056 107.603 143.205 108.348 143.358 109.102C142.975 108.25 142.187 106.619 142.102 106.487C140.824 104.468 137.191 101.308 134.597 101.968C134.17 102.09 133.774 102.3 133.433 102.585C133.093 102.87 132.816 103.223 132.622 103.622C132.427 104.021 132.318 104.456 132.302 104.9C132.287 105.344 132.365 105.786 132.531 106.197C133.179 107.973 135.206 109.11 136.914 109.63C138.792 110.205 142.949 109.681 143.464 109.63C143.716 110.869 143.946 112.083 144.146 113.229C144.294 114.081 144.436 114.896 144.572 115.674H146.237C146.08 114.822 145.909 113.889 145.718 112.935C145.47 111.657 145.181 110.329 144.866 108.953C146.118 108.457 147.339 107.888 148.524 107.249C149.891 108.731 153.397 110.469 153.852 110.686C153.375 111.862 152.898 112.999 152.434 114.064C152.187 114.63 151.949 115.163 151.71 115.691H153.473L153.899 114.681C154.389 113.489 154.887 112.211 155.386 110.891C155.888 110.993 160.007 111.832 161.924 111.398C163.661 111.006 165.757 110.022 166.549 108.301C167.341 106.58 166.63 104.54 164.803 103.927C162.268 103.075 158.414 105.954 156.983 107.875C156.898 107.99 156.131 109.319 155.654 110.167C155.859 109.626 156.08 109.106 156.259 108.544C156.663 107.445 157.034 106.329 157.439 105.137L157.967 103.365C158.158 102.777 158.282 102.134 158.444 101.512C158.789 100.068 159.07 98.5819 159.317 97.0826C160.284 97.4362 163.734 98.633 165.518 98.5094C167.303 98.3859 169.53 97.73 170.561 96.1499C171.592 94.5698 171.208 92.4445 169.496 91.5586C167.12 90.3362 162.861 92.5935 161.165 94.2801C161.063 94.3824 159.981 95.7282 159.406 96.4778C159.547 95.5749 159.692 94.6762 159.807 93.7563C160.135 91.1071 160.386 88.4111 160.659 85.7278C160.735 84.9015 160.825 84.0838 160.914 83.2618C161.255 83.3938 165.322 84.9058 167.303 84.7652C169.083 84.6417 171.315 83.9901 172.346 82.4057C172.6 82.0419 172.776 81.6285 172.86 81.1924C172.945 80.7563 172.937 80.3074 172.836 79.8747C172.736 79.442 172.545 79.0353 172.277 78.6811C172.009 78.3268 171.67 78.033 171.281 77.8186C168.904 76.592 164.645 78.8536 162.954 80.5359C162.826 80.6637 161.276 82.6016 160.906 83.0914C161.097 81.2855 161.306 79.4882 161.579 77.7249C161.934 75.3367 162.441 72.9737 163.099 70.6505C163.261 70.7101 167.499 72.3116 169.552 72.1667C171.328 72.0432 173.559 71.3873 174.59 69.8072C175.621 68.2271 175.238 66.1017 173.525 65.2201C171.149 63.9935 166.89 66.2508 165.199 67.9374C165.067 68.0695 163.401 70.1564 163.125 70.5525C163.163 70.4205 163.188 70.2757 163.231 70.1266C163.962 67.8199 164.899 65.5835 166.029 63.444C166.638 62.2558 167.307 61.1526 167.937 60.0921C168.7 60.4712 172.197 62.1663 174.045 62.2217C175.83 62.2941 178.117 61.8895 179.314 60.4286C179.609 60.0951 179.83 59.7032 179.963 59.2784C180.096 58.8535 180.138 58.4054 180.086 57.9632C180.034 57.521 179.89 57.0948 179.662 56.7123C179.434 56.3298 179.128 55.9997 178.764 55.7435C176.537 54.2656 172.052 56.0459 170.186 57.5324C170.084 57.6133 169.143 58.5503 168.483 59.236C168.785 58.7633 169.092 58.2692 169.39 57.822C170.506 56.1184 171.634 54.666 172.644 53.367C173.227 52.6344 173.764 51.9827 174.275 51.3779C175.212 51.3779 178.998 51.2459 180.664 50.4707C182.329 49.6956 184.126 48.2986 184.497 46.4501C184.867 44.6017 183.769 42.7617 181.852 42.5573C179.194 42.2719 176.034 45.9135 175.063 48.0941C174.978 48.2816 174.007 51.3822 174.054 51.3822H174.113C173.606 51.9529 173.074 52.5705 172.507 53.2562C171.468 54.534 170.301 55.9863 169.143 57.6559C167.875 59.4322 166.711 61.281 165.659 63.1928C164.468 65.3346 163.471 67.5781 162.677 69.8966C162.677 69.9264 162.677 69.9563 162.656 69.9818C162.656 69.1981 162.635 67.0004 162.613 66.8386C162.307 64.4705 160.322 60.0751 157.69 59.5981C155.795 59.2488 154.193 60.731 154.04 62.5794C153.887 64.4279 155.249 66.3445 156.595 67.5328C158.095 68.8702 162.256 70.1692 162.588 70.2714C161.844 72.6439 161.256 75.0626 160.829 77.5119C160.573 78.943 160.365 80.3954 160.169 81.8477C160.169 81.1705 160.143 80.57 160.135 80.4806C159.824 78.1125 157.843 73.7171 155.211 73.24C153.316 72.8908 151.714 74.373 151.561 76.2214C151.408 78.0699 152.771 79.9865 154.117 81.1748C155.462 82.3631 158.993 83.5557 159.93 83.8538C159.862 84.416 159.785 84.9739 159.717 85.5319C159.398 88.2151 159.091 90.8941 158.708 93.5135C158.572 94.4335 158.405 95.3407 158.244 96.2436C158.244 95.6431 158.222 95.1362 158.21 95.0596C157.903 92.6915 155.918 88.2961 153.29 87.819C152.851 87.7503 152.402 87.775 151.973 87.8914C151.544 88.0079 151.144 88.2134 150.8 88.4947C150.455 88.776 150.174 89.1267 149.974 89.524C149.774 89.9213 149.661 90.3562 149.64 90.8004C149.487 92.6787 150.85 94.5612 152.196 95.7495C153.542 96.9378 156.732 98.0154 157.843 98.3774C157.647 99.3016 157.456 100.222 157.226 101.108C157.051 101.708 156.932 102.296 156.723 102.892C156.514 103.488 156.344 104.068 156.157 104.647C155.756 105.754 155.347 106.896 154.93 107.96C154.645 108.706 154.359 109.409 154.078 110.12C154.223 109.204 154.47 107.403 154.474 107.249C154.441 105.154 153.874 103.101 152.826 101.286C152.833 101.051 152.819 100.816 152.783 100.584C152.727 100.143 152.579 99.7192 152.349 99.3395C152.118 98.9599 151.81 98.633 151.445 98.3799C151.08 98.1269 150.666 97.9535 150.229 97.8709C149.793 97.7883 149.344 97.7983 148.912 97.9004C146.331 98.5904 144.691 103.126 144.568 105.507C144.568 105.648 144.653 107.185 144.725 108.152C144.597 107.59 144.478 107.045 144.338 106.448C144.065 105.307 143.763 104.174 143.439 102.952C143.264 102.368 143.085 101.78 142.902 101.184C142.719 100.588 142.476 99.9874 142.28 99.3783C141.769 97.9813 141.182 96.5886 140.577 95.2001C141.578 94.9616 145.117 94.0587 146.54 92.9683C147.962 91.878 149.453 90.1062 149.44 88.2194C149.452 87.7762 149.371 87.3354 149.202 86.9256C149.032 86.5157 148.779 86.1461 148.458 85.8405C148.136 85.5349 147.755 85.3002 147.337 85.1517C146.919 85.0031 146.475 84.944 146.033 84.9782C143.375 85.2678 141.067 89.5014 140.585 91.8439C140.555 91.9887 140.398 93.7052 140.33 94.6507C139.946 93.7989 139.572 92.9854 139.163 92.1591C137.974 89.7655 136.697 87.3803 135.432 84.9952C135.044 84.2627 134.669 83.5301 134.286 82.8018C134.644 82.7166 138.873 81.737 140.466 80.5146C141.88 79.4286 143.384 77.6525 143.366 75.7657C143.379 75.3227 143.297 74.882 143.128 74.4724C142.959 74.0628 142.705 73.6933 142.384 73.3881C142.063 73.0828 141.681 72.8486 141.263 72.7005C140.845 72.5525 140.401 72.494 139.959 72.5288C137.301 72.8141 134.993 77.052 134.512 79.3902C134.478 79.5648 134.252 82.0351 134.226 82.6655C133.375 81.0555 132.57 79.4413 131.829 77.8186C130.811 75.6309 129.939 73.3786 129.218 71.0764C129.384 71.0381 133.8 70.0329 135.432 68.785C136.85 67.6989 138.349 65.9229 138.336 64.0361C138.324 62.1493 136.833 60.5862 134.929 60.7949C132.271 61.0845 129.963 65.3181 129.482 67.6563C129.443 67.8395 129.205 70.4972 129.196 70.9827C129.158 70.8507 129.098 70.7144 129.06 70.5823C128.399 68.2548 127.946 65.8731 127.706 63.4653C127.557 62.1365 127.488 60.8588 127.45 59.6321C128.302 59.5299 132.135 59.0188 133.728 58.0562C135.253 57.132 136.939 55.5306 137.135 53.6523C137.196 53.2123 137.163 52.7646 137.039 52.3381C136.915 51.9116 136.703 51.516 136.416 51.1769C136.13 50.8378 135.775 50.5629 135.375 50.3701C134.974 50.1773 134.538 50.0708 134.094 50.0576C131.42 50.0576 128.664 54.0101 127.927 56.2802C127.885 56.4037 127.616 57.7027 127.437 58.6525C127.437 58.0903 127.408 57.5111 127.412 56.9744C127.412 54.9513 127.54 53.0986 127.667 51.4631C127.748 50.5304 127.838 49.6913 127.931 48.9076C128.707 48.3753 131.799 46.1946 132.748 44.6485C133.698 43.1025 134.452 40.9303 133.741 39.1755C133.03 37.4208 131.096 36.5008 129.388 37.3824C127.011 38.6133 126.385 43.3921 126.781 45.7474C126.816 45.9518 127.71 49.0738 127.753 49.0482L127.799 49.0141C127.693 49.768 127.591 50.5815 127.497 51.4674C127.331 53.1071 127.165 54.9599 127.118 57.0042C127.04 59.1917 127.092 61.3819 127.271 63.5633C127.462 66.0081 127.87 68.4311 128.489 70.8038C128.496 70.8314 128.504 70.8584 128.515 70.8847C128.089 70.2246 126.854 68.4144 126.743 68.2867C125.184 66.4808 121.104 63.9126 118.651 64.956C116.879 65.7099 116.359 67.831 117.25 69.4537C118.14 71.0764 120.197 71.9155 121.96 72.1753Z" fill="#263238"/>
<path d="M167.814 59.6108C167.856 59.6364 168.666 56.4932 168.695 56.2887C169.023 53.9249 168.27 49.1589 165.863 47.9962C164.13 47.1444 162.192 48.1666 161.557 49.9043C160.923 51.642 161.732 53.8525 162.699 55.3517C163.836 57.1065 167.81 59.6108 167.814 59.6108Z" fill="#263238"/>
<path d="M220.325 147.055C218.774 147.374 215.921 149.483 215.921 149.487C215.921 149.491 217.88 150.944 218.016 151.02C219.592 151.902 223.153 152.681 224.635 151.306C224.874 151.07 225.062 150.787 225.185 150.475C225.307 150.162 225.363 149.828 225.348 149.492C225.334 149.157 225.248 148.828 225.098 148.528C224.948 148.228 224.737 147.962 224.477 147.749C223.404 146.808 221.649 146.787 220.325 147.055Z" fill="#263238"/>
<path d="M213.404 139.363C212.045 140.049 209.996 142.625 209.826 142.83C208.354 141.65 206.806 140.569 205.192 139.593C204.255 139.022 203.292 138.473 202.321 137.936C202.803 138.115 203.233 138.273 203.297 138.29C205.047 138.716 208.689 138.532 209.753 136.816C209.925 136.525 210.033 136.201 210.07 135.865C210.108 135.53 210.074 135.19 209.971 134.868C209.868 134.547 209.699 134.25 209.473 133.999C209.248 133.747 208.972 133.546 208.663 133.409C207.385 132.783 205.682 133.226 204.476 133.835C203.271 134.444 201.457 136.612 200.988 137.191C200.613 136.986 200.243 136.765 199.864 136.582C198.062 135.619 196.261 134.665 194.523 133.673C193.91 133.324 193.318 132.957 192.725 132.595C193.151 132.753 193.513 132.885 193.577 132.898C195.332 133.324 198.974 133.145 200.038 131.428C200.21 131.137 200.319 130.813 200.356 130.477C200.394 130.141 200.36 129.801 200.256 129.479C200.153 129.157 199.983 128.86 199.756 128.609C199.53 128.358 199.253 128.157 198.944 128.021C197.666 127.395 195.962 127.838 194.757 128.447C193.552 129.056 191.916 131.002 191.35 131.701C190.758 131.313 190.157 130.921 189.599 130.517C189.224 130.231 188.841 129.98 188.479 129.665L187.376 128.83C186.712 128.242 186.017 127.642 185.383 127.054C184.936 126.628 184.531 126.253 184.105 125.853C184.714 126.211 185.915 126.875 186.022 126.922C187.687 127.616 191.311 127.983 192.628 126.445C192.838 126.184 192.991 125.881 193.078 125.557C193.164 125.232 193.18 124.893 193.127 124.562C193.074 124.231 192.951 123.914 192.767 123.633C192.584 123.352 192.343 123.113 192.061 122.931C190.886 122.118 189.139 122.297 187.857 122.718C186.448 123.183 184.109 125.316 183.815 125.585C183.121 124.925 182.452 124.277 181.831 123.655C181.366 123.2 180.928 122.752 180.51 122.326L179.48 123.051C179.957 123.519 180.462 124.007 180.996 124.516C181.699 125.189 182.461 125.891 183.253 126.607C182.7 127.463 182.196 128.35 181.745 129.265C180.255 128.945 177.333 129.401 176.954 129.461C176.737 128.528 176.528 127.616 176.362 126.756C176.264 126.3 176.179 125.866 176.098 125.436L175.025 126.185C175.084 126.454 175.144 126.718 175.208 126.994C175.421 127.944 175.672 128.954 175.936 129.976C175.583 130.133 172.674 131.407 171.677 132.531C170.774 133.532 169.901 135.061 170.169 136.463C170.222 136.794 170.343 137.11 170.526 137.391C170.708 137.672 170.948 137.912 171.229 138.095C171.51 138.277 171.826 138.399 172.157 138.452C172.488 138.504 172.827 138.487 173.151 138.4C175.088 137.825 176.221 134.359 176.26 132.557C176.26 132.45 176.162 131.279 176.081 130.564C176.192 130.99 176.298 131.394 176.417 131.841C176.647 132.693 176.903 133.545 177.171 134.461C177.32 134.887 177.465 135.338 177.618 135.785C177.772 136.233 177.959 136.684 178.129 137.135C178.555 138.179 179.02 139.218 179.522 140.253C178.773 140.458 176.115 141.22 175.067 142.076C174.019 142.932 172.938 144.304 172.98 145.73C172.981 146.066 173.053 146.399 173.191 146.705C173.328 147.012 173.529 147.286 173.78 147.509C174.031 147.733 174.326 147.902 174.646 148.004C174.966 148.106 175.304 148.14 175.638 148.103C177.64 147.822 179.288 144.572 179.599 142.792C179.599 142.681 179.701 141.382 179.731 140.662C180.033 141.28 180.336 141.901 180.668 142.519C181.618 144.299 182.64 146.071 183.649 147.847C183.96 148.388 184.263 148.933 184.565 149.478C184.297 149.547 181.124 150.386 179.948 151.344C178.905 152.196 177.819 153.571 177.861 154.998C177.862 155.334 177.934 155.666 178.072 155.973C178.209 156.279 178.41 156.553 178.661 156.777C178.911 157.001 179.207 157.17 179.527 157.272C179.847 157.374 180.185 157.408 180.519 157.371C182.521 157.094 184.169 153.84 184.48 152.064C184.501 151.927 184.616 150.058 184.62 149.576C185.289 150.777 185.945 151.979 186.545 153.188C187.364 154.818 188.075 156.5 188.675 158.222C188.552 158.256 185.234 159.113 184.033 160.096C182.985 160.948 181.903 162.324 181.946 163.751C181.947 164.086 182.018 164.418 182.156 164.724C182.293 165.03 182.494 165.304 182.744 165.528C182.994 165.752 183.289 165.92 183.608 166.023C183.928 166.125 184.265 166.16 184.599 166.123C186.605 165.842 188.249 162.592 188.564 160.812C188.586 160.676 188.709 158.661 188.705 158.295C188.739 158.393 188.782 158.495 188.816 158.593C189.368 160.338 189.764 162.128 190 163.942C190.14 164.939 190.221 165.906 190.281 166.843C189.646 166.941 186.75 167.414 185.57 168.18C184.39 168.947 183.198 170.156 183.096 171.588C183.06 171.921 183.095 172.259 183.198 172.579C183.301 172.898 183.471 173.192 183.695 173.442C183.92 173.691 184.195 173.891 184.502 174.027C184.809 174.163 185.141 174.233 185.476 174.232C187.495 174.177 189.489 171.128 189.995 169.394C190.025 169.3 190.196 168.308 190.311 167.588C190.311 168.014 190.362 168.44 190.37 168.866C190.413 170.395 190.37 171.796 190.298 173.036C190.259 173.743 190.213 174.377 190.157 174.974C189.587 175.399 187.299 177.103 186.614 178.313C185.928 179.522 185.421 181.162 185.988 182.474C186.109 182.787 186.295 183.071 186.534 183.308C186.772 183.544 187.058 183.728 187.372 183.846C187.686 183.965 188.022 184.016 188.358 183.996C188.693 183.976 189.02 183.885 189.318 183.73C191.086 182.746 191.448 179.122 191.099 177.342C191.069 177.188 190.319 174.85 190.289 174.871L190.255 174.897C190.319 174.322 190.379 173.709 190.43 173.036C190.515 171.796 190.6 170.391 190.592 168.853C190.6 167.2 190.512 165.547 190.328 163.904C190.129 162.063 189.767 160.243 189.246 158.465C189.237 158.445 189.23 158.423 189.224 158.401C189.557 158.891 190.532 160.228 190.617 160.322C191.84 161.651 194.979 163.504 196.819 162.66C197.119 162.511 197.385 162.3 197.598 162.041C197.812 161.783 197.969 161.482 198.06 161.159C198.15 160.836 198.171 160.497 198.123 160.165C198.074 159.833 197.956 159.515 197.777 159.232C197.053 158.001 195.387 157.43 194.05 157.277C192.538 157.102 189.399 158.129 189.152 158.197C188.575 156.401 187.881 154.646 187.074 152.941C186.605 151.949 186.107 150.961 185.591 149.96C185.894 150.386 186.166 150.739 186.213 150.786C187.431 152.119 190.575 153.968 192.41 153.124C192.708 152.975 192.972 152.765 193.184 152.508C193.396 152.251 193.552 151.953 193.642 151.632C193.732 151.312 193.755 150.976 193.708 150.646C193.66 150.316 193.545 150 193.369 149.717C192.645 148.486 190.979 147.915 189.642 147.762C188.305 147.609 185.591 148.414 184.88 148.639C184.68 148.265 184.484 147.886 184.28 147.511C183.309 145.713 182.333 143.925 181.426 142.14C181.107 141.51 180.817 140.862 180.523 140.249C180.791 140.615 181.021 140.926 181.06 140.969C182.282 142.298 185.421 144.146 187.261 143.303C187.561 143.153 187.827 142.942 188.041 142.684C188.255 142.425 188.412 142.125 188.502 141.801C188.593 141.478 188.614 141.14 188.565 140.808C188.517 140.476 188.399 140.158 188.219 139.874C187.495 138.643 185.83 138.077 184.493 137.919C183.155 137.762 180.702 138.494 179.859 138.771C179.578 138.115 179.292 137.459 179.049 136.812C178.896 136.386 178.713 135.96 178.581 135.496C178.449 135.031 178.304 134.601 178.155 134.163C177.921 133.311 177.674 132.421 177.469 131.577C177.32 130.994 177.192 130.436 177.043 129.874C177.354 130.504 177.985 131.726 178.049 131.82C178.983 133.107 180.23 134.133 181.673 134.801C181.771 134.953 181.882 135.095 182.005 135.227C182.232 135.475 182.508 135.673 182.816 135.807C183.124 135.941 183.456 136.009 183.792 136.006C184.128 136.003 184.46 135.93 184.765 135.791C185.071 135.651 185.344 135.449 185.566 135.198C186.844 133.647 185.898 130.133 184.936 128.604C184.876 128.515 184.152 127.608 183.683 127.041L184.659 127.914C185.327 128.502 186.009 129.069 186.737 129.682L187.84 130.534C188.198 130.828 188.62 131.092 189.012 131.386C189.936 132.025 190.903 132.629 191.895 133.217C191.38 133.801 189.587 135.9 189.182 137.195C188.777 138.49 188.628 140.232 189.459 141.39C189.645 141.67 189.887 141.907 190.171 142.087C190.455 142.266 190.773 142.384 191.105 142.433C191.437 142.481 191.776 142.46 192.099 142.369C192.422 142.278 192.723 142.12 192.981 141.906C194.497 140.568 194.08 136.948 193.36 135.291C193.313 135.189 192.662 134.06 192.295 133.447C192.892 133.792 193.484 134.146 194.101 134.478C195.877 135.44 197.704 136.356 199.523 137.28C200.081 137.561 200.635 137.851 201.188 138.132C201.001 138.337 198.816 140.786 198.365 142.234C197.964 143.511 197.811 145.275 198.641 146.433C198.827 146.713 199.07 146.95 199.354 147.13C199.638 147.309 199.956 147.427 200.288 147.475C200.621 147.524 200.96 147.501 201.283 147.41C201.606 147.318 201.906 147.16 202.164 146.944C203.68 145.611 203.263 141.987 202.543 140.334C202.487 140.206 201.546 138.584 201.291 138.183C202.509 138.814 203.718 139.461 204.885 140.134C206.465 141.044 207.985 142.056 209.434 143.162C209.349 143.256 207.053 145.803 206.593 147.285C206.193 148.563 206.04 150.326 206.87 151.484C207.056 151.764 207.299 152.002 207.582 152.181C207.866 152.361 208.185 152.479 208.517 152.527C208.849 152.575 209.188 152.553 209.511 152.461C209.834 152.37 210.135 152.211 210.392 151.996C211.909 150.662 211.487 147.038 210.767 145.385C210.712 145.253 209.698 143.507 209.489 143.205C209.575 143.269 209.668 143.328 209.749 143.392C211.172 144.542 212.489 145.816 213.685 147.2C214.358 147.954 214.962 148.716 215.52 149.466C215.048 149.892 212.892 151.889 212.33 153.18C211.768 154.47 211.444 156.135 212.143 157.383C212.297 157.682 212.512 157.945 212.775 158.154C213.037 158.364 213.341 158.516 213.666 158.6C213.991 158.685 214.33 158.7 214.662 158.644C214.993 158.588 215.309 158.464 215.588 158.278C217.245 157.115 217.224 153.469 216.692 151.744C216.662 151.651 216.266 150.731 215.959 150.066C216.206 150.411 216.474 150.76 216.704 151.093C217.586 152.345 218.314 153.542 218.949 154.611C219.307 155.22 219.613 155.778 219.899 156.314C219.652 156.979 218.693 159.675 218.787 161.055C218.881 162.435 219.366 164.087 220.559 164.888C220.833 165.081 221.145 165.215 221.475 165.28C221.804 165.345 222.144 165.34 222.471 165.265C222.798 165.191 223.106 165.048 223.375 164.846C223.644 164.645 223.867 164.389 224.03 164.096C224.963 162.303 223.263 159.074 221.994 157.792C221.883 157.681 219.971 156.144 219.958 156.178V156.216C219.694 155.705 219.405 155.16 219.077 154.572C218.463 153.486 217.761 152.268 216.909 150.995C216.003 149.61 215.016 148.281 213.953 147.012C212.772 145.585 211.467 144.265 210.052 143.068L209.996 143.03C210.546 143.256 212.1 143.835 212.224 143.882C213.974 144.308 217.616 144.125 218.681 142.408C218.85 142.118 218.956 141.796 218.992 141.463C219.028 141.129 218.994 140.791 218.891 140.472C218.788 140.152 218.619 139.858 218.395 139.609C218.171 139.359 217.897 139.159 217.59 139.022C216.304 138.311 214.605 138.754 213.404 139.363Z" fill="#263238"/>
<path d="M190.545 167.103C190.511 167.103 191.397 169.398 191.448 169.539C192.274 171.145 194.817 173.755 196.81 173.428C197.14 173.363 197.452 173.231 197.727 173.038C198.002 172.845 198.234 172.597 198.407 172.309C198.579 172.021 198.689 171.7 198.73 171.366C198.77 171.033 198.74 170.695 198.642 170.374C198.267 168.998 196.814 168.006 195.562 167.503C194.093 166.915 190.549 167.103 190.545 167.103Z" fill="#263238"/>
<path d="M78.3424 147.055C79.8927 147.374 82.7463 149.483 82.7506 149.487C82.7549 149.491 80.7871 150.944 80.6508 151.02C79.075 151.902 75.5143 152.681 74.0322 151.306C73.7927 151.07 73.6054 150.787 73.4825 150.475C73.3595 150.162 73.3036 149.828 73.3185 149.492C73.3334 149.157 73.4186 148.828 73.5687 148.528C73.7188 148.228 73.9304 147.962 74.1897 147.749C75.2418 146.808 77.0008 146.787 78.3424 147.055Z" fill="#263238"/>
<path d="M85.2464 139.363C86.6008 140.049 88.6537 142.625 88.8241 142.83C90.2936 141.649 91.8403 140.568 93.4538 139.593C94.3908 139.022 95.3533 138.473 96.3244 137.936C95.8431 138.115 95.413 138.273 95.3533 138.29C93.5986 138.716 89.957 138.532 88.8922 136.816C88.7203 136.525 88.6119 136.201 88.5744 135.865C88.5368 135.529 88.5708 135.188 88.6742 134.867C88.7777 134.545 88.9481 134.248 89.1743 133.997C89.4006 133.746 89.6775 133.545 89.9868 133.409C91.2646 132.783 92.9682 133.226 94.1736 133.835C95.3789 134.444 97.1933 136.612 97.6618 137.191L98.7819 136.582C100.584 135.619 102.385 134.665 104.123 133.673C104.736 133.324 105.328 132.957 105.92 132.595C105.494 132.753 105.132 132.885 105.068 132.898C103.318 133.324 99.6763 133.145 98.6116 131.428C98.4388 131.138 98.3297 130.814 98.2914 130.478C98.2532 130.142 98.2867 129.801 98.3898 129.479C98.4929 129.157 98.6631 128.861 98.8893 128.609C99.1155 128.358 99.3925 128.157 99.7019 128.021C100.98 127.395 102.683 127.838 103.889 128.447C105.094 129.056 106.729 131.002 107.296 131.701C107.892 131.313 108.488 130.921 109.046 130.517C109.425 130.231 109.805 129.98 110.167 129.665L111.248 128.783C111.917 128.196 112.607 127.595 113.242 127.007C113.689 126.581 114.093 126.207 114.519 125.806C113.915 126.164 112.714 126.828 112.607 126.875C110.942 127.569 107.313 127.936 106.001 126.398C105.789 126.137 105.635 125.835 105.548 125.51C105.461 125.186 105.444 124.846 105.497 124.514C105.551 124.183 105.674 123.866 105.858 123.585C106.043 123.304 106.284 123.065 106.568 122.884C107.739 122.071 109.485 122.25 110.767 122.671C112.177 123.136 114.519 125.27 114.809 125.538C115.503 124.878 116.172 124.23 116.798 123.608C117.258 123.153 117.697 122.706 118.114 122.28L119.145 123.004C118.668 123.472 118.164 123.961 117.633 124.469C116.93 125.142 116.163 125.845 115.371 126.56C115.927 127.416 116.432 128.303 116.883 129.218C118.374 128.898 121.296 129.354 121.67 129.414C121.888 128.481 122.096 127.569 122.267 126.709C122.36 126.253 122.446 125.819 122.531 125.389L123.617 126.155C123.557 126.424 123.502 126.688 123.438 126.965C123.221 127.914 122.97 128.924 122.705 129.946C123.063 130.104 125.968 131.377 126.965 132.502C127.868 133.502 128.741 135.031 128.472 136.433C128.42 136.764 128.299 137.081 128.117 137.362C127.935 137.644 127.695 137.884 127.414 138.067C127.133 138.249 126.816 138.371 126.485 138.423C126.153 138.476 125.815 138.458 125.491 138.371C123.557 137.796 122.42 134.329 122.382 132.527C122.382 132.421 122.484 131.249 122.561 130.534C122.45 130.96 122.348 131.364 122.228 131.812C121.998 132.663 121.743 133.515 121.47 134.431L121.044 135.756C120.904 136.181 120.699 136.654 120.529 137.106C120.103 138.149 119.639 139.188 119.136 140.223C119.89 140.428 122.544 141.19 123.591 142.046C124.639 142.902 125.721 144.274 125.678 145.701C125.677 146.037 125.606 146.369 125.468 146.675C125.33 146.982 125.129 147.256 124.879 147.48C124.628 147.703 124.333 147.872 124.013 147.974C123.693 148.076 123.355 148.11 123.021 148.073C121.019 147.792 119.371 144.542 119.06 142.762C119.06 142.651 118.962 141.352 118.932 140.632C118.625 141.25 118.323 141.872 117.991 142.489C117.041 144.27 116.023 146.041 115.009 147.817C114.698 148.358 114.4 148.903 114.093 149.449C114.362 149.517 117.535 150.356 118.71 151.314C119.758 152.166 120.84 153.542 120.797 154.968C120.796 155.304 120.725 155.636 120.587 155.942C120.45 156.248 120.249 156.522 119.999 156.746C119.749 156.969 119.454 157.138 119.135 157.241C118.815 157.343 118.478 157.377 118.144 157.341C116.142 157.064 114.494 153.81 114.179 152.034C114.157 151.898 114.042 150.028 114.038 149.547C113.369 150.748 112.714 151.949 112.117 153.158C111.297 154.788 110.586 156.469 109.988 158.193C110.111 158.227 113.429 159.083 114.634 160.067C115.678 160.918 116.764 162.294 116.717 163.721C116.717 164.057 116.646 164.389 116.508 164.695C116.371 165.002 116.171 165.276 115.92 165.5C115.67 165.724 115.375 165.892 115.055 165.994C114.735 166.097 114.397 166.13 114.064 166.093C112.062 165.812 110.414 162.562 110.103 160.782C110.077 160.646 109.958 158.631 109.962 158.265C109.928 158.363 109.881 158.465 109.847 158.563C109.295 160.308 108.899 162.098 108.663 163.913C108.523 164.909 108.442 165.876 108.386 166.813C109.021 166.911 111.913 167.384 113.071 168.15C114.23 168.917 115.444 170.127 115.546 171.558C115.582 171.891 115.547 172.229 115.444 172.548C115.341 172.867 115.172 173.161 114.947 173.41C114.723 173.66 114.449 173.859 114.143 173.996C113.836 174.132 113.505 174.203 113.169 174.203C111.146 174.147 109.153 171.098 108.646 169.364C108.621 169.271 108.446 168.278 108.331 167.558C108.331 167.984 108.284 168.41 108.271 168.836C108.229 170.365 108.271 171.766 108.344 173.006C108.382 173.713 108.433 174.347 108.484 174.944C109.059 175.37 111.346 177.073 112.028 178.283C112.709 179.493 113.22 181.132 112.658 182.444C112.536 182.757 112.35 183.042 112.111 183.278C111.872 183.515 111.586 183.698 111.271 183.817C110.957 183.935 110.62 183.986 110.285 183.966C109.949 183.946 109.622 183.856 109.323 183.701C107.556 182.717 107.194 179.092 107.543 177.312C107.573 177.159 108.322 174.82 108.352 174.842L108.386 174.867C108.322 174.292 108.263 173.679 108.212 173.006C108.126 171.766 108.041 170.361 108.05 168.823C108.043 167.17 108.133 165.517 108.318 163.874C108.527 162.039 108.901 160.226 109.434 158.457C109.432 158.435 109.432 158.414 109.434 158.393C109.102 158.883 108.122 160.22 108.037 160.314C106.815 161.643 103.676 163.495 101.84 162.652C101.539 162.503 101.272 162.293 101.057 162.035C100.843 161.776 100.685 161.475 100.595 161.152C100.504 160.828 100.483 160.489 100.533 160.157C100.582 159.825 100.701 159.507 100.882 159.223C101.606 157.992 103.267 157.422 104.608 157.268C106.116 157.094 109.255 158.12 109.506 158.188C110.079 156.391 110.774 154.635 111.585 152.933C112.049 151.94 112.547 150.952 113.063 149.951C112.76 150.377 112.488 150.731 112.445 150.777C111.223 152.111 108.084 153.959 106.244 153.116C105.947 152.966 105.684 152.756 105.472 152.499C105.26 152.242 105.104 151.944 105.014 151.623C104.924 151.303 104.901 150.967 104.948 150.637C104.995 150.308 105.11 149.991 105.286 149.708C106.014 148.478 107.675 147.907 109.017 147.753C110.358 147.6 113.067 148.405 113.774 148.631C113.978 148.256 114.174 147.877 114.375 147.502C115.346 145.705 116.325 143.916 117.228 142.131C117.548 141.501 117.837 140.854 118.131 140.24C117.863 140.607 117.633 140.918 117.594 140.96C116.372 142.289 113.233 144.137 111.397 143.294C111.096 143.146 110.829 142.935 110.615 142.677C110.4 142.418 110.243 142.118 110.152 141.794C110.062 141.47 110.041 141.131 110.09 140.799C110.14 140.467 110.258 140.149 110.439 139.866C111.163 138.635 112.824 138.068 114.166 137.911C115.508 137.753 117.952 138.486 118.8 138.762C119.081 138.107 119.362 137.451 119.605 136.803C119.762 136.377 119.941 135.951 120.073 135.487C120.205 135.023 120.35 134.593 120.499 134.154C120.729 133.302 120.976 132.412 121.181 131.569C121.33 130.985 121.458 130.427 121.607 129.865C121.296 130.496 120.661 131.718 120.597 131.812C119.665 133.098 118.418 134.124 116.977 134.793C116.879 134.944 116.768 135.087 116.645 135.219C116.418 135.467 116.142 135.664 115.834 135.798C115.526 135.933 115.194 136 114.858 135.998C114.522 135.995 114.19 135.921 113.885 135.782C113.579 135.643 113.306 135.441 113.084 135.189C111.785 133.639 112.752 130.125 113.714 128.596C113.77 128.506 114.494 127.599 114.962 127.033L113.974 127.889C113.31 128.477 112.628 129.043 111.896 129.656L110.797 130.508C110.435 130.802 110.013 131.066 109.621 131.36C108.697 131.999 107.73 132.604 106.742 133.192C107.253 133.775 109.051 135.875 109.451 137.17C109.851 138.464 110.005 140.206 109.174 141.365C108.989 141.645 108.746 141.883 108.463 142.063C108.179 142.243 107.861 142.361 107.528 142.409C107.196 142.458 106.857 142.436 106.534 142.345C106.21 142.254 105.91 142.095 105.652 141.88C104.136 140.543 104.557 136.923 105.277 135.266C105.32 135.164 105.971 134.035 106.342 133.422C105.746 133.767 105.149 134.12 104.536 134.452C102.756 135.415 100.929 136.33 99.1099 137.255C98.5519 137.536 97.9983 137.825 97.4446 138.107C97.632 138.311 99.8169 140.76 100.268 142.208C100.669 143.486 100.822 145.249 99.9915 146.408C99.8057 146.687 99.5629 146.925 99.2791 147.104C98.9953 147.284 98.6769 147.402 98.3445 147.45C98.0122 147.498 97.6734 147.476 97.3503 147.384C97.0271 147.293 96.7269 147.134 96.4692 146.919C94.953 145.586 95.3746 141.961 96.0944 140.309C96.1498 140.181 97.0868 138.558 97.3466 138.158C96.1242 138.788 94.9146 139.435 93.7476 140.108C92.1678 141.019 90.6484 142.03 89.1989 143.137C89.2883 143.23 91.5797 145.777 92.044 147.259C92.4443 148.537 92.5977 150.3 91.7671 151.459C91.5813 151.739 91.3385 151.976 91.0548 152.156C90.771 152.335 90.4525 152.453 90.1202 152.501C89.7878 152.549 89.449 152.527 89.1259 152.436C88.8028 152.344 88.5025 152.185 88.2448 151.97C86.7243 150.637 87.146 147.012 87.8658 145.36C87.9254 145.228 88.9348 143.482 89.1435 143.179C89.0626 143.243 88.9689 143.303 88.8837 143.367C87.4612 144.516 86.1442 145.79 84.9483 147.174C84.2753 147.928 83.6705 148.69 83.1126 149.44C83.5896 149.866 85.7405 151.864 86.3027 153.154C86.8649 154.445 87.1886 156.11 86.4901 157.358C86.336 157.656 86.1208 157.919 85.8584 158.129C85.5959 158.338 85.2922 158.49 84.9671 158.575C84.6419 158.659 84.3027 158.674 83.9714 158.619C83.6401 158.563 83.3242 158.438 83.0444 158.252C81.3919 157.089 81.4089 153.444 81.9456 151.719C81.9754 151.625 82.3715 150.705 82.6782 150.041C82.4269 150.386 82.1628 150.735 81.9286 151.067C81.0512 152.319 80.3229 153.516 79.6883 154.585C79.3305 155.194 79.0196 155.752 78.7342 156.289C78.9812 156.953 79.9395 159.649 79.8501 161.029C79.7607 162.409 79.2709 164.062 78.0783 164.862C77.8039 165.056 77.4918 165.19 77.1624 165.255C76.833 165.32 76.4935 165.315 76.1661 165.24C75.8388 165.165 75.5308 165.022 75.2622 164.821C74.9936 164.619 74.7704 164.364 74.6071 164.07C73.6744 162.277 75.3695 159.049 76.6387 157.767C76.7495 157.656 78.6618 156.118 78.6788 156.152V156.191C78.9429 155.68 79.2325 155.135 79.5605 154.547C80.1738 153.461 80.8766 152.243 81.7326 150.969C82.6374 149.585 83.6229 148.255 84.6842 146.987C85.8662 145.56 87.1717 144.24 88.5856 143.043L88.6409 143.005C88.0915 143.23 86.5412 143.81 86.4177 143.856C84.6629 144.282 81.0214 144.099 79.9566 142.383C79.7876 142.093 79.6817 141.77 79.6457 141.436C79.6097 141.102 79.6445 140.765 79.7478 140.445C79.8511 140.126 80.0205 139.832 80.2451 139.582C80.4697 139.333 80.7443 139.133 81.0512 138.997C82.3417 138.311 84.0411 138.754 85.2464 139.363Z" fill="#263238"/>
<path d="M108.101 167.103C108.139 167.103 107.27 169.398 107.198 169.539C106.372 171.145 103.829 173.755 101.836 173.428C101.506 173.363 101.194 173.231 100.918 173.038C100.643 172.845 100.412 172.597 100.239 172.309C100.067 172.021 99.9564 171.7 99.9159 171.366C99.8754 171.033 99.9055 170.695 100.004 170.374C100.379 168.998 101.836 168.006 103.084 167.503C104.553 166.915 108.097 167.103 108.101 167.103Z" fill="#263238"/>
<path d="M265.701 35.9684C263.75 33.5706 262.783 30.5213 262.995 27.4372C263.206 24.3532 264.582 21.4647 266.842 19.356C269.102 17.2473 272.079 16.0758 275.171 16.0786C278.262 16.0813 281.237 17.258 283.494 19.3706C285.75 21.4833 287.12 24.3742 287.327 27.4586C287.533 30.543 286.56 33.5906 284.605 35.985C282.65 38.3794 279.858 39.9419 276.795 40.3563C273.731 40.7707 270.625 40.0061 268.104 38.2172L262.673 40.8494L265.701 35.9684Z" fill="white" stroke="#263238" stroke-miterlimit="10"/>
<path d="M267.307 30.6828H270.425V26.1511H267.307V30.6828Z" fill="#263238"/>
<path d="M269.79 30.6828L274.995 34.4607V22.369L269.79 26.1469V30.6828Z" fill="#263238"/>
<path d="M279.539 23.5403C280.234 24.1379 280.784 24.8856 281.148 25.727C281.512 26.5684 281.679 27.4814 281.638 28.3971C281.597 29.3128 281.349 30.2072 280.911 31.0127C280.474 31.8181 279.859 32.5137 279.113 33.0467" stroke="#263238" stroke-linecap="round" stroke-linejoin="round"/>
<path d="M276.788 25.2908C277.346 25.5264 277.821 25.9211 278.156 26.4256C278.49 26.9301 278.669 27.522 278.669 28.1273C278.669 28.7327 278.49 29.3246 278.156 29.8291C277.821 30.3336 277.346 30.7283 276.788 30.9639" stroke="#263238" stroke-linecap="round" stroke-linejoin="round"/>
<path d="M49.6487 36.4369C51.5922 34.043 52.554 31.0003 52.3396 27.9242C52.1252 24.8482 50.7506 21.9684 48.4938 19.8672C46.237 17.766 43.2664 16.6004 40.1829 16.606C37.0994 16.6116 34.1331 17.788 31.8839 19.8974C29.6347 22.0067 28.2706 24.8915 28.0674 27.9683C27.8641 31.0451 28.837 34.0843 30.7892 36.4712C32.7414 38.858 35.5272 40.4144 38.5832 40.8255C41.6392 41.2366 44.7372 40.4718 47.2508 38.6857L52.6812 41.3179L49.6487 36.4369Z" fill="white" stroke="#263238" stroke-miterlimit="10"/>
<path d="M40.1934 31.6326C39.5747 31.6315 38.9817 31.3853 38.5442 30.9478C38.1068 30.5103 37.8605 29.9173 37.8594 29.2986V21.9176C37.8605 21.2993 38.1069 20.7067 38.5445 20.2699C38.9821 19.8331 39.5751 19.5878 40.1934 19.5878C40.8113 19.5878 41.4038 19.8333 41.8408 20.2702C42.2777 20.7071 42.5231 21.2997 42.5231 21.9176V29.3114C42.5197 29.9275 42.2729 30.5172 41.8365 30.9521C41.4001 31.3869 40.8094 31.6315 40.1934 31.6326Z" fill="#263238"/>
<path d="M40.2105 33.3362C39.1174 33.3351 38.0694 32.9004 37.2964 32.1274C36.5235 31.3545 36.0888 30.3065 36.0876 29.2134V25.7294C36.0876 25.6165 36.1325 25.5081 36.2124 25.4283C36.2923 25.3484 36.4006 25.3035 36.5136 25.3035C36.6265 25.3035 36.7349 25.3484 36.8147 25.4283C36.8946 25.5081 36.9395 25.6165 36.9395 25.7294V29.1964C36.9236 29.6356 36.9964 30.0735 37.1536 30.4839C37.3107 30.8943 37.5489 31.2689 37.854 31.5852C38.1592 31.9016 38.5249 32.1531 38.9294 32.325C39.3339 32.4968 39.7689 32.5854 40.2084 32.5854C40.6478 32.5854 41.0828 32.4968 41.4873 32.325C41.8918 32.1531 42.2576 31.9016 42.5627 31.5852C42.8678 31.2689 43.106 30.8943 43.2631 30.4839C43.4203 30.0735 43.4931 29.6356 43.4772 29.1964V25.7294C43.4772 25.6165 43.5221 25.5081 43.602 25.4283C43.6819 25.3484 43.7902 25.3035 43.9031 25.3035C44.0161 25.3035 44.1244 25.3484 44.2043 25.4283C44.2842 25.5081 44.3291 25.6165 44.3291 25.7294V29.1964C44.3307 29.7387 44.2255 30.2761 44.0194 30.7777C43.8133 31.2793 43.5103 31.7354 43.1278 32.1199C42.7453 32.5044 42.2908 32.8097 41.7902 33.0184C41.2896 33.2271 40.7528 33.3351 40.2105 33.3362Z" fill="#263238"/>
<path d="M40.2105 37.7572C40.0975 37.7572 39.9892 37.7124 39.9093 37.6325C39.8294 37.5526 39.7845 37.4443 39.7845 37.3313V32.9103C39.7845 32.7974 39.8294 32.6891 39.9093 32.6092C39.9892 32.5293 40.0975 32.4844 40.2105 32.4844C40.3234 32.4844 40.4318 32.5293 40.5116 32.6092C40.5915 32.6891 40.6364 32.7974 40.6364 32.9103V37.3484C40.632 37.4583 40.5852 37.5623 40.5058 37.6386C40.4264 37.7148 40.3205 37.7573 40.2105 37.7572Z" fill="#263238"/>
<path d="M43.0554 37.983H37.3695C37.2566 37.983 37.1482 37.9381 37.0684 37.8582C36.9885 37.7784 36.9436 37.67 36.9436 37.5571C36.9436 37.4441 36.9885 37.3358 37.0684 37.2559C37.1482 37.176 37.2566 37.1312 37.3695 37.1312H43.0554C43.1684 37.1312 43.2767 37.176 43.3566 37.2559C43.4365 37.3358 43.4814 37.4441 43.4814 37.5571C43.4814 37.67 43.4365 37.7784 43.3566 37.8582C43.2767 37.9381 43.1684 37.983 43.0554 37.983Z" fill="#263238"/>
<path d="M238.669 55.6243L240.866 53.9206C240.866 53.9206 241.05 49.8958 241.416 49.406C241.782 48.9162 243.669 46.9697 243.971 46.2968C244.274 45.6239 246.527 46.3607 247.021 46.3607C247.515 46.3607 248.299 45.9944 248.239 46.3607C248.179 46.727 247.932 47.4553 247.387 47.6981C246.842 47.9408 245.436 47.5788 245.436 47.5788L245.194 49.9554C245.194 49.9554 250.377 48.6138 249.644 50.1982C248.912 51.7826 247.694 54.5893 246.842 55.4412C245.99 56.293 242.51 56.9063 242.51 56.9063L239.584 60.139L238.669 55.6243Z" fill="white" stroke="#263238" stroke-miterlimit="10"/>
<path d="M251.046 47.089C251.046 47.089 252.451 47.0294 252.451 47.5788C252.451 48.1282 251.838 48.6138 251.046 48.98C250.254 49.3463 249.704 49.1632 249.704 48.98C249.704 48.7969 251.046 47.089 251.046 47.089Z" fill="white" stroke="#263238" stroke-miterlimit="10"/>
<path d="M251.046 48.98C251.249 49.2029 251.368 49.4908 251.379 49.7925C251.391 50.0942 251.295 50.3903 251.11 50.6283C250.437 51.5398 247.817 51.297 247.817 51.297L249.704 48.98C249.911 49.0876 250.141 49.1437 250.375 49.1437C250.608 49.1437 250.838 49.0876 251.046 48.98Z" fill="white" stroke="#263238" stroke-miterlimit="10"/>
<path d="M250.743 51.2246C250.743 51.2246 250.317 52.4427 249.828 52.6855C249.338 52.9283 247.085 52.4428 247.085 52.4428L247.817 51.2843C247.817 51.2843 250.437 51.297 250.743 51.2246Z" fill="white" stroke="#263238" stroke-miterlimit="10"/>
<path d="M249.828 52.6982C249.553 53.2135 249.204 53.6856 248.793 54.0995C248.367 54.4061 246.902 54.4061 246.595 54.2826C246.288 54.1591 246.412 53.3073 246.842 53.1242C247.542 52.9756 248.256 52.8943 248.972 52.8814L249.828 52.6982Z" fill="white" stroke="#263238" stroke-miterlimit="10"/>
<path d="M252.775 41.0027L245.108 50.573C245.031 50.6704 244.994 50.7941 245.006 50.9179L245.24 53.1497C245.25 53.2409 245.285 53.3273 245.343 53.3987C245.4 53.47 245.477 53.5231 245.564 53.5515C245.651 53.5799 245.745 53.5824 245.833 53.5588C245.922 53.5351 246.001 53.4862 246.062 53.4181L254.93 43.7498C255.002 43.6709 255.045 43.5704 255.054 43.464C255.062 43.3576 255.035 43.2514 254.977 43.1621L253.533 41.0325C253.491 40.9717 253.436 40.9214 253.372 40.8858C253.307 40.8501 253.235 40.83 253.161 40.8271C253.088 40.8242 253.014 40.8386 252.947 40.8691C252.88 40.8996 252.821 40.9453 252.775 41.0027Z" fill="#263238" stroke="#263238" stroke-linecap="round" stroke-linejoin="round"/>
<path d="M244.827 50.8711C244.827 50.8711 244.035 52.8814 243.06 53.3073" stroke="#263238" stroke-miterlimit="10"/>
<path d="M233.915 57.5154L239.099 54.9556L240.377 60.6884L233.856 66.0507L233.915 57.5154Z" fill="#358991" stroke="#263238" stroke-miterlimit="10"/>
<path d="M236.356 36.2708L238.954 39.0222L238.801 41.8503L237.208 40.2446L234.537 42.076L235.504 71.4171L227.412 72.3328L232.225 36.2708C232.225 36.2708 232.846 33.7622 236.356 36.2708Z" fill="#358991" stroke="#263238" stroke-miterlimit="10"/>
<path d="M233.375 39.5929C233.499 43.2769 233.356 46.965 232.949 50.6283C232.276 55.9906 230.632 68.6743 230.691 69.4665C230.751 70.2587 230.815 71.4768 230.508 71.8431C230.202 72.2093 226.134 72.3925 226.134 72.3925C226.134 72.3925 229.669 48.3114 230.219 44.2822C230.768 40.2531 230.819 37.5187 231.539 37.5954C232.259 37.6721 233.375 39.5929 233.375 39.5929Z" fill="white" stroke="#263238" stroke-miterlimit="10"/>
<path d="M254.393 24.5795C254.393 24.5795 252.098 27.7142 251.489 28.4766C250.88 29.239 249.274 29.7543 249.044 30.3123C248.814 30.8702 248.282 32.987 248.052 33.5961C247.822 34.2051 245.377 33.4428 245.377 33.4428C245.377 33.4428 241.326 36.1175 240.564 36.2708C239.802 36.4241 237.813 34.2861 237.813 34.2861L235.078 38.7156L228.506 29.8523L232.634 25.1162C232.634 25.1162 231.948 18.851 232.404 15.7205C232.859 12.5901 236.991 9.22535 240.96 7.69632C244.005 6.52506 249.295 9.79607 251.608 11.389C252.325 11.8915 252.918 12.5514 253.341 13.3184C254.321 15.0731 256.157 18.4293 256.749 20.133C257.601 22.5181 256.455 24.0471 254.393 24.5795Z" fill="white" stroke="#263238" stroke-miterlimit="10"/>
<path d="M237.813 34.2861L236.207 32.3737L235.751 37.5699L237.813 34.2861Z" fill="#263238" stroke="#263238" stroke-miterlimit="10"/>
<path d="M249.96 29.1666C249.96 29.1666 250.113 27.4076 248.431 27.3309" stroke="#263238" stroke-miterlimit="10"/>
<path d="M247.813 30.0482C247.387 30.3549 246.936 30.4741 246.812 30.291C246.689 30.1078 246.94 29.733 247.37 29.4392C247.8 29.1453 248.247 29.0132 248.371 29.2007C248.494 29.3881 248.243 29.7458 247.813 30.0482Z" fill="#263238"/>
<path d="M242.395 31.7647C242.532 32.4619 242.878 33.1008 243.388 33.5961" stroke="#263238" stroke-miterlimit="10"/>
<path d="M256.761 20.133C256.157 18.4293 254.321 15.0561 253.354 13.3184C252.924 12.5487 252.322 11.8885 251.595 11.389C249.291 9.79607 244.001 6.52506 240.947 7.69632C236.978 9.22535 232.855 12.5858 232.391 15.7205C231.926 18.8552 232.621 25.1162 232.621 25.1162C233.423 25.4406 234.274 25.6278 235.138 25.6698C235.681 25.6314 236.199 25.4275 236.622 25.0855C237.046 24.7436 237.354 24.2801 237.506 23.7575C237.659 22.9951 241.02 22.1518 240.866 22.5351C240.727 23.1142 240.549 23.6833 240.334 24.2388C240.276 24.3272 240.245 24.4303 240.244 24.5359C240.243 24.6414 240.272 24.7451 240.328 24.8346C240.384 24.9242 240.465 24.9958 240.56 25.0412C240.655 25.0865 240.762 25.1037 240.866 25.0906C241.326 25.0139 242.779 23.6382 242.779 23.6382C242.779 23.6382 246.676 24.916 247.131 24.6306C247.587 24.3453 248.051 22.5692 248.051 22.5692C248.051 22.5692 248.128 25.2439 249.197 25.3206C250.016 25.3122 250.823 25.1292 251.565 24.7839C251.565 24.7839 251.182 26.3896 251.949 26.313C252.715 26.2363 254.393 24.6093 254.393 24.6093C256.455 24.0471 257.6 22.5181 256.761 20.133Z" fill="#263238" stroke="#263238" stroke-linecap="round" stroke-linejoin="round"/>
<path d="M240.334 24.5795C240.334 24.5795 240.334 20.7463 239.482 20.6867C238.63 20.627 237.263 21.6024 237.263 23.3571C237.254 24.3875 237.606 25.3885 238.26 26.1852" fill="white"/>
<path d="M240.334 24.5795C240.334 24.5795 240.334 20.7463 239.482 20.6867C238.63 20.627 237.263 21.6024 237.263 23.3571C237.254 24.3875 237.606 25.3885 238.26 26.1852" stroke="#263238" stroke-miterlimit="10"/>
<path d="M251.02 117.667L257.013 118.165C257.013 118.165 262.975 116.632 263.316 117.91C263.657 119.188 261.698 120.38 260.079 121.743C258.461 123.106 253.18 125.491 253.18 125.491C253.18 125.491 248.75 127.876 247.217 128.217C245.683 128.558 244.15 122.68 244.15 122.68L251.02 117.667Z" fill="white" stroke="#263238" stroke-miterlimit="10"/>
<path d="M263.316 117.897C263.29 117.821 263.248 117.752 263.192 117.694C263.136 117.637 263.068 117.593 262.993 117.565C261.924 119.183 257.353 122.812 254.474 123.775C252.123 124.558 247.724 126.245 245.794 126.986C246.22 127.77 246.735 128.315 247.234 128.204C248.767 127.863 253.197 125.478 253.197 125.478C253.197 125.478 258.478 123.093 260.096 121.73C261.715 120.367 263.657 119.175 263.316 117.897Z" fill="white" stroke="#263238" stroke-miterlimit="10"/>
<path d="M224.729 85.698L234.95 85.5276C234.95 85.5276 240.487 115.171 241.254 116.534C241.587 117.214 242.05 117.821 242.617 118.323C242.617 118.323 241.765 119.175 242.021 119.941C242.276 120.708 243.895 122.156 244.15 122.667C244.406 123.178 249.176 120.538 249.176 120.538L251.02 117.654C251.02 117.654 250.424 114.162 250.083 113.906C249.639 113.632 249.307 113.21 249.146 112.714C249.061 112.203 249.487 111.351 249.231 110.669C248.976 109.988 248.294 109.562 248.209 108.966C248.124 108.369 249.687 81.5241 248.324 79.2241C246.961 76.9242 241.254 77.5205 241.254 77.5205C241.254 77.5205 216.21 83.4833 216.381 84.5906C216.551 85.698 224.729 85.698 224.729 85.698Z" fill="#263238" stroke="#263238" stroke-linecap="round" stroke-linejoin="round"/>
<path d="M240.709 113.574C240.709 113.574 241.782 114.647 242.412 115.188C243.043 115.729 247.485 118.34 247.562 118.8C247.638 119.26 247.178 120.721 246.638 121.027C246.097 121.334 240.568 120.721 239.261 120.567C237.953 120.414 233.647 117.952 232.263 117.186C230.879 116.419 229.345 114.958 229.345 114.494C229.345 114.03 233.341 107.424 233.341 107.424L240.875 112.496L240.709 113.574Z" fill="white" stroke="#263238" stroke-miterlimit="10"/>
<path d="M244.78 120.184C242.553 119.877 238.707 119.643 236.479 118.187C234.776 117.075 231.309 114.673 229.746 113.587C229.568 113.871 229.425 114.176 229.32 114.494C229.32 114.958 230.857 116.415 232.237 117.186C233.617 117.957 237.928 120.414 239.235 120.567C240.543 120.721 246.075 121.338 246.612 121.027C246.827 120.871 246.998 120.661 247.106 120.418C246.697 120.401 245.973 120.346 244.78 120.184Z" fill="white" stroke="#263238" stroke-miterlimit="10"/>
<path d="M226.262 70.4503C226.262 70.4503 237.851 70.2927 245.428 71.2297C253.005 72.1668 256.34 72.6225 259.223 74.4539C262.533 76.5579 243.635 108.599 243.635 108.599L242.016 110.644C242.016 110.644 242.357 111.666 242.102 111.836C241.6 112.386 241.133 112.966 240.705 113.574L233.332 108.344V106.555L234.865 106.044C234.738 105.751 234.7 105.427 234.754 105.112C234.809 104.797 234.954 104.505 235.172 104.272C235.609 103.828 236.1 103.44 236.633 103.118L243.022 83.9773C243.022 83.9773 229.167 85.4425 224.737 85.681C220.308 85.9195 204.8 85.681 204.8 85.681C204.8 85.681 202.5 85.0847 202.671 80.9107C202.841 76.7368 204.289 73.1591 207.189 71.9666C210.09 70.774 226.262 70.4503 226.262 70.4503Z" fill="#263238" stroke="#263238" stroke-linecap="round" stroke-linejoin="round"/>
<path d="M241.893 112.531C241.893 112.531 242.77 111.947 242.77 111.581C242.77 111.214 242.476 110.554 242.621 110.116C242.766 109.677 248.26 100.967 248.26 100.967" stroke="white" stroke-miterlimit="10"/>
<path d="M238.209 98.552L243.043 84.3521L236.232 85.5234" stroke="white" stroke-miterlimit="10"/>
<path d="M243.013 83.9773L250.935 82.1885" stroke="white" stroke-miterlimit="10"/>
<path d="M246.335 84.1477C246.335 84.1477 250.679 83.9773 252.809 82.7848" stroke="white" stroke-miterlimit="10"/>
<path d="M233 39.2522L227.412 72.3328L226.343 83.3342C226.343 83.3342 219.009 85.6298 212.288 84.7099C205.567 83.7899 203.731 82.2651 203.731 82.2651C203.731 82.2651 209.464 58.414 209.464 58.2011C209.464 57.9881 212.671 43.835 213.97 40.8536C215.269 37.8722 227.037 29.699 227.037 29.699L233 39.2522Z" fill="#358991" stroke="#263238" stroke-miterlimit="10"/>
<path d="M229.256 27.4842L236.897 38.8689L233.306 41.0836L227.041 29.699L229.256 27.4842Z" fill="white" stroke="#263238" stroke-miterlimit="10"/>
<path d="M199.519 80.1867L198.105 82.3162C198.105 82.3162 192.483 82.576 192.036 82.7975C191.588 83.019 189.616 85.4424 189.616 85.6639C189.616 85.8854 196.094 85.6639 196.094 85.6639L198.365 85.0676C198.365 85.0676 197.087 85.7022 197.359 85.7746C198.053 85.8133 198.748 85.8133 199.442 85.7746C199.442 85.7746 202.27 84.8845 202.679 84.399C203.088 83.9134 203.872 81.3111 203.872 81.3111L199.519 80.1867Z" fill="white" stroke="#263238" stroke-miterlimit="10"/>
<path d="M194.046 85.6469C194.046 85.6469 196.537 83.3001 196.686 83.1894C196.951 83.0899 197.227 83.0268 197.508 83.002" stroke="#263238" stroke-miterlimit="10"/>
<path d="M195.311 82.7805C194.953 82.8604 194.612 83.0047 194.306 83.2064C194.118 83.4279 192.406 85.7363 192.406 85.7363" stroke="#263238" stroke-miterlimit="10"/>
<path d="M193.411 82.9296C193.411 82.9296 192.67 83.0403 192.521 83.2277C192.372 83.4151 190.881 85.6469 190.881 85.6469" stroke="#263238" stroke-miterlimit="10"/>
<path d="M219.49 38.6389C219.49 38.6389 204.293 53.3542 203.987 54.534C203.68 55.7137 199.025 80.5146 199.025 80.5146C199.747 80.8648 200.5 81.1498 201.273 81.3665C202.424 81.6008 203.59 81.7559 204.762 81.8307L211.819 60.5052C211.819 60.5052 226.624 49.9469 227.412 49.3421C228.2 48.7373 228.809 45.7729 228.809 44.7635" fill="#358991"/>
<path d="M219.49 38.6389C219.49 38.6389 204.293 53.3542 203.987 54.534C203.68 55.7137 199.025 80.5146 199.025 80.5146C199.747 80.8648 200.5 81.1498 201.273 81.3665C202.424 81.6008 203.59 81.7559 204.762 81.8307L211.819 60.5052C211.819 60.5052 226.624 49.9469 227.412 49.3421C228.2 48.7373 228.809 45.7729 228.809 44.7635" stroke="#263238" stroke-miterlimit="10"/>
<path d="M63.5632 32.0586C63.5632 32.0586 57.068 37.1184 57.1532 39.9848C57.2384 42.8512 60.8629 44.9595 61.3697 45.3002C61.8765 45.6409 67.8606 50.6113 67.358 52.8048C66.8555 54.9982 61.8765 54.5766 61.0332 57.1874C60.1899 59.7983 61.7914 60.9014 64.1509 61.4891C66.5105 62.0769 70.8122 59.7855 71.9962 60.2114C73.1803 60.6373 76.1276 62.5752 78.4871 63.755C80.8467 64.9348 82.4524 65.1861 85.2336 62.5752C88.0148 59.9644 86.5113 57.4302 86.5113 57.4302C86.5113 57.4302 91.4903 59.202 92.7552 54.9003C94.0202 50.5985 92.2484 47.6597 89.8037 47.1401C88.5836 46.8587 87.3405 46.6891 86.0897 46.6333C86.0897 46.6333 86.2601 40.3085 84.5734 38.115C82.8868 35.9216 78.4999 31.3686 75.0458 30.1036C71.5916 28.8387 66.174 30.3549 63.5632 32.0586Z" fill="#263238" stroke="#263238" stroke-linecap="round" stroke-linejoin="round"/>
<path d="M43.6604 81.0385L42.2208 76.6687L45.3939 75.3909C45.3939 75.3909 44.4952 80.0036 43.6604 81.0385Z" fill="#263238" stroke="#263238" stroke-miterlimit="10"/>
<path d="M60.65 143.094C60.65 143.094 62.7071 144.725 62.622 145.649C62.5368 146.574 61.4209 149.163 61.7701 150.965C62.1194 152.766 61.7701 155.164 61.0844 156.365C60.3987 157.567 59.713 158.069 59.4574 157.822C59.0048 157.326 58.7332 156.691 58.6865 156.02C58.6865 155.25 59.2019 142.051 59.2019 142.051L60.65 143.094Z" fill="white" stroke="#263238" stroke-miterlimit="10"/>
<path d="M51.3054 157.239L51.8208 164.096C51.8208 164.096 52.0763 164.781 54.1335 164.522C56.1906 164.262 58.7504 161.779 58.7504 161.779L58.1498 155.437C58.1498 155.437 53.6394 157.324 51.3054 157.239Z" fill="white" stroke="#263238" stroke-miterlimit="10"/>
<path d="M53.878 162.724C53.878 162.724 51.906 159.211 50.7944 159.722C49.6827 160.233 50.279 163.235 50.279 163.921C50.279 164.607 47.6213 169.407 46.5054 170.438C45.3895 171.468 43.7668 172.141 43.852 172.993C43.9372 173.845 45.8197 174.109 47.2593 174.024C48.6989 173.939 52.1445 172.823 53.5159 172.052C54.8874 171.281 60.7139 167.167 61.0546 166.566C61.3953 165.966 60.9694 163.738 60.3689 163.052C59.7683 162.367 58.5715 160.569 58.5715 160.224C58.5715 159.879 58.5715 159.709 57.7197 160.309C56.8679 160.91 56.016 161.851 55.6625 162.013C55.309 162.175 53.878 162.724 53.878 162.724Z" fill="white" stroke="#263238" stroke-miterlimit="10"/>
<path d="M66.3913 92.7767L65.7907 91.1497C65.7907 91.1497 52.8515 88.147 47.0208 84.7184C47.0208 84.7184 38.7069 93.2069 34.9376 98.6884C31.1683 104.17 26.5386 116.611 26.8793 118.242C27.2201 119.873 46.5948 140.441 46.5948 140.441C46.5948 140.441 49.1503 152.268 49.5081 154.836C49.8658 157.405 52.5917 158.866 54.8192 158.78C57.0467 158.695 59.3637 156.808 59.6192 156.123C59.8748 155.437 60.65 139.41 60.9907 133.839C61.6266 125.892 62.8883 118.008 64.7643 110.26C66.6468 102.977 67.6946 97.1465 66.3913 92.7767ZM46.335 123.63L42.3953 118.059L46.9356 109.737L46.335 123.63Z" fill="#358991" stroke="#263238" stroke-miterlimit="10"/>
<path d="M46.9355 109.745C46.9355 109.745 47.5361 98.3476 48.1366 95.7751" stroke="#263238" stroke-miterlimit="10"/>
<path d="M46.335 123.63C46.335 123.63 46.2498 134.431 46.5948 140.432" stroke="#263238" stroke-miterlimit="10"/>
<path d="M42.3953 118.067C42.3953 118.067 40.3382 116.364 38.7921 116.1" stroke="#263238" stroke-miterlimit="10"/>
<path d="M54.8193 92.6063C54.8193 92.6063 53.7076 99.9746 53.1156 104.174" stroke="#263238" stroke-miterlimit="10"/>
<path d="M55.769 98.6031C55.769 98.6031 55.9394 105.805 55.8542 106.146" stroke="#263238" stroke-miterlimit="10"/>
<path d="M46.68 88.147C46.68 88.147 42.8213 92.8619 41.0239 95.6899" stroke="#263238" stroke-miterlimit="10"/>
<path d="M47.6213 88.6624L44.9636 94.2333" stroke="#263238" stroke-miterlimit="10"/>
<path d="M66.2592 59.3596C66.2592 59.3596 57.8261 60.961 56.8891 61.8043C55.9521 62.6476 45.168 71.7579 45.168 71.7579L43.6603 81.0385L48.1281 79.4371C48.1281 79.4371 44.7549 83.232 44.9252 83.9049C45.0956 84.5779 48.4646 87.785 50.7432 89.2203C53.0218 90.6557 64.3213 93.0152 67.1025 93.1813C69.8837 93.3474 69.6324 90.1446 69.8028 89.5568C69.9732 88.969 71.6555 82.64 71.6555 82.64L84.812 79.3349C84.812 79.3349 82.6228 62.0471 80.5145 59.0955C78.4062 56.1439 75.9572 56.7317 74.0193 57.3919C72.0814 58.052 66.2592 59.3596 66.2592 59.3596Z" fill="#CCCCCC" stroke="#263238" stroke-miterlimit="10"/>
<path d="M72.5841 63.7465L73.4274 80.191" stroke="#263238" stroke-miterlimit="10"/>
<path d="M61.5358 40.9772C61.5358 40.9772 61.0332 44.9382 61.0332 47.3872C61.0332 49.8362 62.3791 53.712 63.8144 55.2282C65.2497 56.7445 65.8375 56.8296 66.8512 56.5059L65.2497 63.9254C65.2497 63.9254 71.0677 60.3008 72.1623 59.4575C72.88 58.8809 73.5061 58.1988 74.0193 57.4344L75.033 51.8678C75.5782 51.1099 76.0301 50.2891 76.3788 49.423C76.8048 48.2432 77.056 46.6375 75.9529 45.8794C74.8498 45.1213 74.015 44.4484 70.9783 41.0751C67.9415 37.7019 67.8563 37.2802 67.8563 37.2802L61.5358 40.9772Z" fill="white" stroke="#263238" stroke-miterlimit="10"/>
<path d="M74.2708 47.5533C74.2708 47.5533 76.0425 44.0139 77.1414 45.8496C78.2403 47.6853 77.7292 49.1376 76.971 50.0661C76.2129 50.9946 74.5263 50.7433 74.5263 50.7433" fill="white"/>
<path d="M74.2708 47.5533C74.2708 47.5533 76.0425 44.0139 77.1414 45.8496C78.2403 47.6853 77.7292 49.1376 76.971 50.0661C76.2129 50.9946 74.5263 50.7433 74.5263 50.7433" stroke="#263238" stroke-miterlimit="10"/>
<path d="M66.8513 56.4931L69.8029 55.2282L66.2593 59.3595L66.8513 56.4931Z" fill="#263238" stroke="#263238" stroke-linecap="round" stroke-linejoin="round"/>
<path d="M64.6578 44.0948C64.6578 44.0948 63.9849 46.4587 63.5632 47.3872C63.1415 48.3156 62.2131 48.6649 62.7114 48.9034C63.2749 49.217 63.9263 49.3353 64.5641 49.2399" stroke="#263238" stroke-linecap="round" stroke-linejoin="round"/>
<path d="M63.7292 51.0968C65.1822 51.2535 66.6381 50.8294 67.7797 49.9171C67.7797 49.9171 67.1025 52.447 66.0079 52.8686C64.9133 53.2903 63.7292 51.0968 63.7292 51.0968Z" stroke="#263238" stroke-linecap="round" stroke-linejoin="round"/>
<path d="M66.8428 41.8205C66.8428 41.8205 67.8522 41.0623 69.3727 42.2464" stroke="#263238" stroke-linecap="round" stroke-linejoin="round"/>
<path d="M64.4874 41.9866C64.363 41.8327 64.2085 41.7057 64.0334 41.6135C63.8584 41.5212 63.6663 41.4657 63.469 41.4501C63.2717 41.4346 63.0733 41.4594 62.8859 41.5231C62.6986 41.5867 62.5261 41.6879 62.3792 41.8205" stroke="#263238" stroke-linecap="round" stroke-linejoin="round"/>
<path d="M68.3676 44.8572C68.3676 45.3683 68.1418 45.7814 67.8607 45.7814C67.5796 45.7814 67.3582 45.3555 67.3582 44.8572C67.3582 44.3589 67.5839 43.9287 67.8607 43.9287C68.1376 43.9287 68.3676 44.3418 68.3676 44.8572Z" fill="#263238"/>
<path d="M63.6442 44.0948C63.6442 44.6102 63.4184 45.0233 63.1416 45.0233C62.8648 45.0233 62.6348 44.5974 62.6348 44.0948C62.6348 43.5922 62.8605 43.1706 63.1416 43.1706C63.4227 43.1706 63.6442 43.5837 63.6442 44.0948Z" fill="#263238"/>
<path d="M48.1282 79.4328L55.4666 66.8684" stroke="#263238" stroke-miterlimit="10"/>
<path d="M46.6375 49.1206L52.8558 61.4721C52.9294 61.6207 53.0448 61.7445 53.1878 61.8285C53.3308 61.9125 53.4952 61.9529 53.6608 61.9448L58.8569 61.6935C58.9961 61.6877 59.1317 61.6479 59.2519 61.5775C59.3721 61.5071 59.4732 61.4083 59.5463 61.2897C59.6195 61.1712 59.6624 61.0365 59.6715 60.8975C59.6805 60.7585 59.6552 60.6194 59.598 60.4925L53.8737 47.5532C53.7982 47.3821 53.6685 47.2405 53.5045 47.1505C53.3406 47.0604 53.1515 47.0268 52.9666 47.0549L47.2806 47.8854C47.1453 47.9037 47.0164 47.9541 46.9047 48.0326C46.793 48.111 46.7018 48.2152 46.6388 48.3362C46.5757 48.4573 46.5427 48.5918 46.5425 48.7283C46.5423 48.8648 46.5748 48.9993 46.6375 49.1206Z" fill="#263238" stroke="#263238" stroke-miterlimit="10"/>
<path d="M46.8631 55.9863C46.8631 55.9863 49.8999 62.6476 49.8147 62.9883C49.7295 63.329 37.2503 73.7809 37.1651 74.8798C37.0799 75.9786 37.9232 79.2624 39.1882 79.7693C40.4531 80.2761 42.2249 79.3434 42.7318 78.9175C43.2386 78.4915 52.1785 66.0123 52.6811 65.4245C53.1837 64.8368 53.2731 63.1459 53.2731 63.1459C54.1159 62.1641 55.0468 61.2617 56.0543 60.4499C57.4045 59.4362 56.9061 58.8442 55.9734 59.2658C55.2692 59.6097 54.5916 60.0055 53.9461 60.4499C53.3626 60.8758 53.2688 59.828 55.3601 58.2522C57.1915 56.8722 56.7997 56.2972 56.8976 56.063C57.1532 55.471 56.1395 55.8926 56.1395 55.8926C56.1395 55.8926 56.395 55.1004 56.0586 54.93C55.9367 54.8862 55.807 54.8685 55.6779 54.8781C55.5488 54.8876 55.4231 54.9242 55.309 54.9854L50.8284 57.3279L49.3803 56.6635C49.3803 56.6635 52.5022 54.4701 53.5116 54.0484C54.521 53.6268 54.9469 52.447 53.9375 52.6983C52.9281 52.9496 47.5403 55.0578 46.8631 55.9863Z" fill="white" stroke="#263238" stroke-miterlimit="10"/>
<path d="M56.1396 55.9097C56.1396 55.9097 51.7569 58.6951 51.4162 59.202C51.1898 59.6751 51.0747 60.1938 51.0797 60.7182" stroke="#263238" stroke-miterlimit="10"/>
<path d="M50.8285 57.3365C50.8285 57.3365 49.3932 58.0094 49.308 58.6142" stroke="#263238" stroke-miterlimit="10"/>
<path d="M84.4756 77.3501C84.4756 77.3501 57.8219 82.3163 57.3066 82.9211C56.7912 83.5259 53.6395 93.0322 53.7076 93.8159C53.7758 94.5996 55.6796 97.3297 56.1055 97.7599C56.5314 98.19 57.477 98.3604 58.0775 98.5308C58.678 98.7011 60.9056 98.0154 60.5648 97.3297C60.2241 96.644 58.8612 96.8186 58.8612 96.8186L58.0093 94.7614C58.4682 93.6438 58.7291 92.4548 58.7803 91.2477C58.7803 89.544 59.2062 85.8471 59.2062 85.8471H84.3904C84.3904 85.8471 85.5063 85.5021 85.5915 84.9058C85.6766 84.3095 84.4756 77.3501 84.4756 77.3501Z" fill="white" stroke="#263238" stroke-miterlimit="10"/>
<path d="M56.28 94.4888C56.28 94.4888 57.2213 97.0443 57.3917 97.4063C57.562 97.7684 58.0774 98.518 58.0774 98.518" stroke="#263238" stroke-miterlimit="10"/>
<path d="M54.9087 94.7487L56.1055 97.7471" stroke="#263238" stroke-miterlimit="10"/>
<path d="M227.804 87.9894H67.8692C65.8274 87.9894 64.1722 89.6445 64.1722 91.6863V142.621C64.1722 144.663 65.8274 146.318 67.8692 146.318H227.804C229.845 146.318 231.501 144.663 231.501 142.621V91.6863C231.501 89.6445 229.845 87.9894 227.804 87.9894Z" fill="#263238" stroke="#263238" stroke-linecap="round" stroke-linejoin="round"/>
<path d="M230.444 85.7874H70.5098C68.468 85.7874 66.8129 87.4426 66.8129 89.4843V140.419C66.8129 142.461 68.468 144.116 70.5098 144.116H230.444C232.486 144.116 234.141 142.461 234.141 140.419V89.4843C234.141 87.4426 232.486 85.7874 230.444 85.7874Z" fill="white" stroke="#263238" stroke-miterlimit="10"/>
<path d="M122.637 108.476C122.37 108.476 122.113 108.582 121.924 108.771C121.734 108.961 121.628 109.218 121.628 109.485V119.085C121.619 119.224 121.638 119.362 121.685 119.493C121.732 119.623 121.805 119.743 121.9 119.844C121.995 119.945 122.109 120.026 122.236 120.081C122.364 120.136 122.501 120.165 122.639 120.165C122.778 120.165 122.915 120.136 123.042 120.081C123.17 120.026 123.284 119.945 123.379 119.844C123.474 119.743 123.547 119.623 123.594 119.493C123.64 119.362 123.66 119.224 123.651 119.085V109.485C123.65 109.217 123.543 108.96 123.353 108.771C123.163 108.582 122.905 108.476 122.637 108.476Z" fill="#263238"/>
<path d="M134.989 108.476C134.721 108.476 134.464 108.582 134.274 108.771C134.084 108.96 133.976 109.217 133.975 109.485V119.085C133.966 119.224 133.986 119.362 134.032 119.493C134.079 119.623 134.152 119.743 134.247 119.844C134.342 119.945 134.456 120.026 134.584 120.081C134.711 120.136 134.848 120.165 134.987 120.165C135.125 120.165 135.263 120.136 135.39 120.081C135.517 120.026 135.632 119.945 135.726 119.844C135.821 119.743 135.894 119.623 135.941 119.493C135.988 119.362 136.007 119.224 135.998 119.085V109.485C135.998 109.218 135.892 108.961 135.703 108.771C135.513 108.582 135.257 108.476 134.989 108.476Z" fill="#263238"/>
<path d="M144.227 108.476C143.959 108.476 143.702 108.582 143.513 108.771C143.324 108.961 143.217 109.218 143.217 109.485V119.085C143.217 119.353 143.324 119.61 143.513 119.799C143.702 119.988 143.959 120.095 144.227 120.095C144.495 120.095 144.751 119.988 144.941 119.799C145.13 119.61 145.236 119.353 145.236 119.085V109.485C145.236 109.218 145.13 108.961 144.941 108.771C144.751 108.582 144.495 108.476 144.227 108.476Z" fill="#263238"/>
<path d="M150.394 108.476C150.126 108.476 149.87 108.582 149.68 108.771C149.491 108.961 149.385 109.218 149.385 109.485V119.085C149.385 119.353 149.491 119.61 149.68 119.799C149.87 119.988 150.126 120.095 150.394 120.095C150.662 120.095 150.919 119.988 151.108 119.799C151.297 119.61 151.403 119.353 151.403 119.085V109.485C151.403 109.218 151.297 108.961 151.108 108.771C150.919 108.582 150.662 108.476 150.394 108.476Z" fill="#263238"/>
<path d="M153.478 108.476C153.21 108.476 152.953 108.582 152.764 108.771C152.575 108.961 152.468 109.218 152.468 109.485V119.085C152.459 119.224 152.479 119.362 152.525 119.493C152.572 119.623 152.645 119.743 152.74 119.844C152.835 119.945 152.949 120.026 153.077 120.081C153.204 120.136 153.341 120.165 153.48 120.165C153.618 120.165 153.756 120.136 153.883 120.081C154.01 120.026 154.125 119.945 154.219 119.844C154.314 119.743 154.387 119.623 154.434 119.493C154.481 119.362 154.5 119.224 154.491 119.085V109.485C154.49 109.217 154.383 108.96 154.193 108.771C154.003 108.582 153.746 108.476 153.478 108.476Z" fill="#263238"/>
<path d="M168.9 108.476C168.632 108.476 168.375 108.582 168.185 108.771C167.995 108.96 167.887 109.217 167.886 109.485V119.085C167.877 119.224 167.897 119.362 167.944 119.493C167.99 119.623 168.063 119.743 168.158 119.844C168.253 119.945 168.368 120.026 168.495 120.081C168.622 120.136 168.759 120.165 168.898 120.165C169.036 120.165 169.174 120.136 169.301 120.081C169.428 120.026 169.543 119.945 169.637 119.844C169.732 119.743 169.805 119.623 169.852 119.493C169.899 119.362 169.918 119.224 169.909 119.085V109.485C169.909 109.218 169.803 108.961 169.614 108.771C169.424 108.582 169.168 108.476 168.9 108.476Z" fill="#263238"/>
<path d="M187.402 108.476C187.134 108.476 186.877 108.582 186.688 108.771C186.499 108.961 186.392 109.218 186.392 109.485V119.085C186.392 119.353 186.499 119.61 186.688 119.799C186.877 119.988 187.134 120.095 187.402 120.095C187.669 120.095 187.926 119.988 188.115 119.799C188.305 119.61 188.411 119.353 188.411 119.085V109.485C188.411 109.218 188.305 108.961 188.115 108.771C187.926 108.582 187.669 108.476 187.402 108.476Z" fill="#263238"/>
<path d="M196.652 108.476C196.385 108.476 196.128 108.582 195.939 108.771C195.749 108.961 195.643 109.218 195.643 109.485V119.085C195.634 119.224 195.654 119.362 195.7 119.493C195.747 119.623 195.82 119.743 195.915 119.844C196.01 119.945 196.124 120.026 196.251 120.081C196.379 120.136 196.516 120.165 196.655 120.165C196.793 120.165 196.93 120.136 197.058 120.081C197.185 120.026 197.299 119.945 197.394 119.844C197.489 119.743 197.562 119.623 197.609 119.493C197.656 119.362 197.675 119.224 197.666 119.085V109.485C197.665 109.217 197.558 108.96 197.368 108.771C197.178 108.582 196.921 108.476 196.652 108.476Z" fill="#263238"/>
<path d="M199.727 108.476C199.595 108.475 199.463 108.501 199.34 108.551C199.217 108.602 199.105 108.676 199.011 108.77C198.917 108.864 198.842 108.975 198.791 109.098C198.74 109.221 198.714 109.352 198.714 109.485V119.085C198.705 119.224 198.724 119.362 198.771 119.493C198.818 119.623 198.891 119.743 198.986 119.844C199.081 119.945 199.195 120.026 199.322 120.081C199.45 120.136 199.587 120.165 199.725 120.165C199.864 120.165 200.001 120.136 200.128 120.081C200.256 120.026 200.37 119.945 200.465 119.844C200.56 119.743 200.633 119.623 200.68 119.493C200.726 119.362 200.746 119.224 200.737 119.085V109.485C200.737 109.217 200.631 108.961 200.441 108.771C200.252 108.582 199.995 108.476 199.727 108.476Z" fill="#263238"/>
<path d="M212.079 108.476C211.811 108.476 211.555 108.582 211.365 108.771C211.176 108.961 211.07 109.218 211.07 109.485V119.085C211.07 119.353 211.176 119.61 211.365 119.799C211.555 119.988 211.811 120.095 212.079 120.095C212.347 120.095 212.603 119.988 212.793 119.799C212.982 119.61 213.088 119.353 213.088 119.085V109.485C213.088 109.218 212.982 108.961 212.793 108.771C212.603 108.582 212.347 108.476 212.079 108.476Z" fill="#263238"/>
<path d="M215.158 108.476C214.891 108.476 214.634 108.582 214.445 108.771C214.255 108.961 214.149 109.218 214.149 109.485V119.085C214.149 119.353 214.255 119.61 214.445 119.799C214.634 119.988 214.891 120.095 215.158 120.095C215.426 120.095 215.683 119.988 215.872 119.799C216.061 119.61 216.168 119.353 216.168 119.085V109.485C216.168 109.218 216.061 108.961 215.872 108.771C215.683 108.582 215.426 108.476 215.158 108.476Z" fill="#263238"/>
<path d="M218.242 108.476C217.974 108.476 217.717 108.582 217.528 108.771C217.339 108.961 217.233 109.218 217.233 109.485V119.085C217.233 119.353 217.339 119.61 217.528 119.799C217.717 119.988 217.974 120.095 218.242 120.095C218.51 120.095 218.766 119.988 218.956 119.799C219.145 119.61 219.251 119.353 219.251 119.085V109.485C219.251 109.218 219.145 108.961 218.956 108.771C218.766 108.582 218.51 108.476 218.242 108.476Z" fill="#263238"/>
<path d="M221.326 108.476C221.058 108.476 220.801 108.582 220.612 108.771C220.423 108.961 220.316 109.218 220.316 109.485V119.085C220.316 119.353 220.423 119.61 220.612 119.799C220.801 119.988 221.058 120.095 221.326 120.095C221.593 120.095 221.85 119.988 222.039 119.799C222.229 119.61 222.335 119.353 222.335 119.085V109.485C222.335 109.218 222.229 108.961 222.039 108.771C221.85 108.582 221.593 108.476 221.326 108.476Z" fill="#263238"/>
<path d="M113.476 108.476C113.208 108.476 112.951 108.582 112.762 108.771C112.573 108.961 112.466 109.218 112.466 109.485V119.085C112.466 119.353 112.573 119.61 112.762 119.799C112.951 119.988 113.208 120.095 113.476 120.095C113.744 120.095 114 119.988 114.19 119.799C114.379 119.61 114.485 119.353 114.485 119.085V109.485C114.485 109.218 114.379 108.961 114.19 108.771C114 108.582 113.744 108.476 113.476 108.476Z" fill="#263238"/>
<path d="M116.56 108.476C116.292 108.476 116.035 108.582 115.846 108.771C115.656 108.961 115.55 109.218 115.55 109.485V119.085C115.541 119.224 115.561 119.362 115.607 119.493C115.654 119.623 115.727 119.743 115.822 119.844C115.917 119.945 116.031 120.026 116.159 120.081C116.286 120.136 116.423 120.165 116.562 120.165C116.7 120.165 116.837 120.136 116.965 120.081C117.092 120.026 117.206 119.945 117.301 119.844C117.396 119.743 117.469 119.623 117.516 119.493C117.563 119.362 117.582 119.224 117.573 119.085V109.485C117.572 109.217 117.465 108.96 117.275 108.771C117.085 108.582 116.828 108.476 116.56 108.476Z" fill="#263238"/>
<path d="M119.656 108.476C119.388 108.476 119.131 108.582 118.942 108.771C118.753 108.961 118.646 109.218 118.646 109.485V119.085C118.637 119.224 118.657 119.362 118.704 119.493C118.75 119.623 118.824 119.743 118.918 119.844C119.013 119.945 119.128 120.026 119.255 120.081C119.382 120.136 119.519 120.165 119.658 120.165C119.797 120.165 119.934 120.136 120.061 120.081C120.188 120.026 120.303 119.945 120.398 119.844C120.492 119.743 120.565 119.623 120.612 119.493C120.659 119.362 120.678 119.224 120.67 119.085V109.485C120.668 109.217 120.561 108.96 120.371 108.771C120.181 108.582 119.924 108.476 119.656 108.476Z" fill="#263238"/>
<path d="M171.984 108.476C171.715 108.476 171.458 108.582 171.268 108.771C171.078 108.96 170.971 109.217 170.97 109.485V119.085C170.961 119.224 170.98 119.362 171.027 119.493C171.074 119.623 171.147 119.743 171.242 119.844C171.337 119.945 171.451 120.026 171.578 120.081C171.706 120.136 171.843 120.165 171.981 120.165C172.12 120.165 172.257 120.136 172.384 120.081C172.512 120.026 172.626 119.945 172.721 119.844C172.816 119.743 172.889 119.623 172.936 119.493C172.982 119.362 173.002 119.224 172.993 119.085V109.485C172.993 109.218 172.887 108.961 172.697 108.771C172.508 108.582 172.251 108.476 171.984 108.476Z" fill="#263238"/>
<path d="M156.561 108.476C156.294 108.476 156.037 108.582 155.848 108.771C155.658 108.961 155.552 109.218 155.552 109.485V119.085C155.543 119.224 155.562 119.362 155.609 119.493C155.656 119.623 155.729 119.743 155.824 119.844C155.919 119.945 156.033 120.026 156.16 120.081C156.288 120.136 156.425 120.165 156.563 120.165C156.702 120.165 156.839 120.136 156.967 120.081C157.094 120.026 157.208 119.945 157.303 119.844C157.398 119.743 157.471 119.623 157.518 119.493C157.565 119.362 157.584 119.224 157.575 119.085V109.485C157.574 109.217 157.467 108.96 157.277 108.771C157.087 108.582 156.829 108.476 156.561 108.476Z" fill="#263238"/>
<path d="M125.725 104.217H125.721C125.163 104.217 124.712 104.669 124.712 105.226V123.349C124.712 123.906 125.163 124.358 125.721 124.358H125.725C126.283 124.358 126.735 123.906 126.735 123.349V105.226C126.735 104.669 126.283 104.217 125.725 104.217Z" fill="#263238"/>
<path d="M131.892 104.217C131.624 104.217 131.367 104.323 131.177 104.512C130.987 104.701 130.88 104.958 130.879 105.226V123.344C130.87 123.483 130.889 123.621 130.936 123.752C130.983 123.883 131.056 124.002 131.151 124.103C131.245 124.204 131.36 124.285 131.487 124.34C131.614 124.395 131.752 124.424 131.89 124.424C132.029 124.424 132.166 124.395 132.293 124.34C132.421 124.285 132.535 124.204 132.63 124.103C132.725 124.002 132.798 123.883 132.845 123.752C132.891 123.621 132.911 123.483 132.902 123.344V105.226C132.902 104.958 132.795 104.702 132.606 104.512C132.417 104.323 132.16 104.217 131.892 104.217Z" fill="#263238"/>
<path d="M141.143 104.217C140.876 104.217 140.619 104.323 140.429 104.512C140.24 104.702 140.134 104.958 140.134 105.226V123.344C140.134 123.612 140.24 123.869 140.429 124.058C140.619 124.247 140.876 124.354 141.143 124.354C141.411 124.354 141.668 124.247 141.857 124.058C142.046 123.869 142.153 123.612 142.153 123.344V105.226C142.153 104.958 142.046 104.702 141.857 104.512C141.668 104.323 141.411 104.217 141.143 104.217Z" fill="#263238"/>
<path d="M147.31 104.217C147.043 104.217 146.786 104.323 146.597 104.512C146.407 104.702 146.301 104.958 146.301 105.226V123.344C146.301 123.612 146.407 123.869 146.597 124.058C146.786 124.247 147.043 124.354 147.31 124.354C147.578 124.354 147.835 124.247 148.024 124.058C148.214 123.869 148.32 123.612 148.32 123.344V105.226C148.32 104.958 148.214 104.702 148.024 104.512C147.835 104.323 147.578 104.217 147.31 104.217Z" fill="#263238"/>
<path d="M159.645 104.217C159.377 104.217 159.12 104.323 158.931 104.512C158.742 104.702 158.635 104.958 158.635 105.226V123.344C158.626 123.483 158.646 123.621 158.693 123.752C158.739 123.883 158.813 124.002 158.907 124.103C159.002 124.204 159.117 124.285 159.244 124.34C159.371 124.395 159.508 124.424 159.647 124.424C159.786 124.424 159.923 124.395 160.05 124.34C160.177 124.285 160.292 124.204 160.387 124.103C160.481 124.002 160.554 123.883 160.601 123.752C160.648 123.621 160.667 123.483 160.659 123.344V105.226C160.657 104.958 160.55 104.701 160.36 104.512C160.17 104.323 159.913 104.217 159.645 104.217Z" fill="#263238"/>
<path d="M175.067 104.217C174.935 104.217 174.803 104.243 174.681 104.294C174.558 104.344 174.447 104.419 174.353 104.512C174.26 104.606 174.185 104.717 174.135 104.84C174.084 104.962 174.058 105.094 174.058 105.226V123.344C174.058 123.612 174.164 123.869 174.353 124.058C174.543 124.247 174.799 124.354 175.067 124.354C175.335 124.354 175.592 124.247 175.781 124.058C175.97 123.869 176.077 123.612 176.077 123.344V105.226C176.077 104.958 175.97 104.702 175.781 104.512C175.592 104.323 175.335 104.217 175.067 104.217Z" fill="#263238"/>
<path d="M178.155 104.217H178.151C177.593 104.217 177.141 104.669 177.141 105.226V123.349C177.141 123.906 177.593 124.358 178.151 124.358H178.155C178.713 124.358 179.164 123.906 179.164 123.349V105.226C179.164 104.669 178.713 104.217 178.155 104.217Z" fill="#263238"/>
<path d="M181.234 104.217C180.967 104.217 180.71 104.323 180.521 104.512C180.331 104.702 180.225 104.958 180.225 105.226V123.344C180.225 123.612 180.331 123.869 180.521 124.058C180.71 124.247 180.967 124.354 181.234 124.354C181.502 124.354 181.759 124.247 181.948 124.058C182.137 123.869 182.244 123.612 182.244 123.344V105.226C182.244 104.958 182.137 104.702 181.948 104.512C181.759 104.323 181.502 104.217 181.234 104.217Z" fill="#263238"/>
<path d="M184.318 104.217C184.05 104.217 183.794 104.323 183.604 104.512C183.415 104.702 183.309 104.958 183.309 105.226V123.344C183.309 123.612 183.415 123.869 183.604 124.058C183.794 124.247 184.05 124.354 184.318 124.354C184.586 124.354 184.842 124.247 185.032 124.058C185.221 123.869 185.327 123.612 185.327 123.344V105.226C185.327 104.958 185.221 104.702 185.032 104.512C184.842 104.323 184.586 104.217 184.318 104.217Z" fill="#263238"/>
<path d="M202.824 104.217H202.82C202.262 104.217 201.81 104.669 201.81 105.226V123.349C201.81 123.906 202.262 124.358 202.82 124.358H202.824C203.381 124.358 203.833 123.906 203.833 123.349V105.226C203.833 104.669 203.381 104.217 202.824 104.217Z" fill="#263238"/>
<path d="M208.991 104.217C208.723 104.217 208.466 104.323 208.276 104.512C208.086 104.701 207.979 104.958 207.977 105.226V123.344C207.968 123.483 207.988 123.621 208.035 123.752C208.082 123.883 208.155 124.002 208.249 124.103C208.344 124.204 208.459 124.285 208.586 124.34C208.713 124.395 208.85 124.424 208.989 124.424C209.128 124.424 209.265 124.395 209.392 124.34C209.519 124.285 209.634 124.204 209.729 124.103C209.823 124.002 209.896 123.883 209.943 123.752C209.99 123.621 210.01 123.483 210.001 123.344V105.226C210.001 104.958 209.894 104.702 209.705 104.512C209.516 104.323 209.259 104.217 208.991 104.217Z" fill="#263238"/>
<path d="M128.809 99.9576C128.541 99.9575 128.283 100.064 128.094 100.253C127.904 100.442 127.796 100.699 127.795 100.967V127.604C127.786 127.742 127.806 127.881 127.852 128.011C127.899 128.142 127.972 128.261 128.067 128.362C128.162 128.464 128.276 128.544 128.404 128.599C128.531 128.654 128.668 128.683 128.807 128.683C128.945 128.683 129.082 128.654 129.21 128.599C129.337 128.544 129.451 128.464 129.546 128.362C129.641 128.261 129.714 128.142 129.761 128.011C129.808 127.881 129.827 127.742 129.818 127.604V100.967C129.818 100.699 129.712 100.443 129.523 100.253C129.333 100.064 129.076 99.9576 128.809 99.9576Z" fill="#263238"/>
<path d="M138.06 99.9576C137.792 99.9576 137.535 100.064 137.346 100.253C137.157 100.443 137.05 100.699 137.05 100.967V127.604C137.05 127.871 137.157 128.128 137.346 128.317C137.535 128.507 137.792 128.613 138.06 128.613C138.327 128.613 138.584 128.507 138.773 128.317C138.963 128.128 139.069 127.871 139.069 127.604V100.967C139.069 100.699 138.963 100.443 138.773 100.253C138.584 100.064 138.327 99.9576 138.06 99.9576Z" fill="#263238"/>
<path d="M162.728 99.9575C162.461 99.9575 162.204 100.064 162.015 100.253C161.825 100.442 161.719 100.699 161.719 100.967V127.604C161.71 127.742 161.73 127.881 161.776 128.011C161.823 128.142 161.896 128.261 161.991 128.362C162.086 128.464 162.2 128.544 162.328 128.599C162.455 128.654 162.592 128.683 162.731 128.683C162.869 128.683 163.006 128.654 163.134 128.599C163.261 128.544 163.375 128.464 163.47 128.362C163.565 128.261 163.638 128.142 163.685 128.011C163.732 127.881 163.751 127.742 163.742 127.604V100.967C163.742 100.834 163.716 100.702 163.665 100.58C163.614 100.457 163.539 100.345 163.445 100.252C163.351 100.158 163.239 100.084 163.116 100.033C162.993 99.9827 162.861 99.957 162.728 99.9575Z" fill="#263238"/>
<path d="M165.816 99.9576C165.548 99.9575 165.291 100.064 165.101 100.253C164.911 100.442 164.804 100.699 164.803 100.967V127.604C164.794 127.742 164.813 127.881 164.86 128.011C164.907 128.142 164.98 128.261 165.075 128.362C165.169 128.464 165.284 128.544 165.411 128.599C165.538 128.654 165.676 128.683 165.814 128.683C165.953 128.683 166.09 128.654 166.217 128.599C166.344 128.544 166.459 128.464 166.554 128.362C166.649 128.261 166.722 128.142 166.768 128.011C166.815 127.881 166.835 127.742 166.826 127.604V100.967C166.826 100.699 166.719 100.443 166.53 100.253C166.341 100.064 166.084 99.9576 165.816 99.9576Z" fill="#263238"/>
<path d="M190.485 99.9576C190.353 99.9576 190.221 99.9837 190.099 100.034C189.976 100.085 189.865 100.159 189.771 100.253C189.678 100.347 189.603 100.458 189.553 100.581C189.502 100.703 189.476 100.834 189.476 100.967V127.604C189.467 127.742 189.486 127.881 189.533 128.011C189.58 128.142 189.653 128.261 189.748 128.362C189.842 128.464 189.957 128.544 190.084 128.599C190.211 128.654 190.349 128.683 190.487 128.683C190.626 128.683 190.763 128.654 190.89 128.599C191.018 128.544 191.132 128.464 191.227 128.362C191.322 128.261 191.395 128.142 191.442 128.011C191.488 127.881 191.508 127.742 191.499 127.604V100.967C191.498 100.699 191.39 100.442 191.2 100.253C191.01 100.064 190.753 99.9575 190.485 99.9576Z" fill="#263238"/>
<path d="M193.569 99.9576C193.301 99.9576 193.044 100.064 192.855 100.253C192.666 100.443 192.559 100.699 192.559 100.967V127.604C192.55 127.742 192.57 127.881 192.617 128.011C192.663 128.142 192.736 128.261 192.831 128.362C192.926 128.464 193.041 128.544 193.168 128.599C193.295 128.654 193.432 128.683 193.571 128.683C193.71 128.683 193.847 128.654 193.974 128.599C194.101 128.544 194.216 128.464 194.311 128.362C194.405 128.261 194.478 128.142 194.525 128.011C194.572 127.881 194.591 127.742 194.582 127.604V100.967C194.581 100.699 194.474 100.442 194.284 100.253C194.094 100.064 193.837 99.9575 193.569 99.9576Z" fill="#263238"/>
<path d="M205.907 99.9576C205.639 99.9575 205.382 100.064 205.192 100.253C205.002 100.442 204.895 100.699 204.894 100.967V127.604C204.885 127.742 204.904 127.881 204.951 128.011C204.998 128.142 205.071 128.261 205.166 128.362C205.26 128.464 205.375 128.544 205.502 128.599C205.629 128.654 205.767 128.683 205.905 128.683C206.044 128.683 206.181 128.654 206.308 128.599C206.436 128.544 206.55 128.464 206.645 128.362C206.74 128.261 206.813 128.142 206.86 128.011C206.906 127.881 206.926 127.742 206.917 127.604V100.967C206.917 100.699 206.81 100.443 206.621 100.253C206.432 100.064 206.175 99.9576 205.907 99.9576Z" fill="#263238"/>
<path d="M101.081 126.173C106.989 120.264 106.989 110.686 101.081 104.778C95.1725 98.8697 85.5937 98.8697 79.6857 104.778C73.7777 110.686 73.7777 120.264 79.6857 126.173C85.5937 132.081 95.1725 132.081 101.081 126.173Z" fill="#263238"/>
<path d="M101.593 115.474L83.5044 105.03V125.917L101.593 115.474Z" fill="#358991" stroke="#263238" stroke-miterlimit="10"/>
</svg>
